<svg xmlns="http://www.w3.org/2000/svg" xmlns:xlink="http://www.w3.org/1999/xlink" viewBox="0 0 4680 3120"><defs><style>.cls-1{fill:#dbdffe;}.cls-2{fill:#c2c7f8;}.cls-3{fill:#2d47c4;}.cls-4{fill:#959cf5;}.cls-5{fill:#d93539;}.cls-6{fill:#ffc19d;}.cls-7{fill:#7d96ff;}.cls-8{fill:#b5bcf7;}.cls-17,.cls-9{fill:#fff;}.cls-10{clip-path:url(#clip-path);}.cls-11{fill:#222270;}.cls-12{fill:#e9a445;}.cls-13{fill:#fffae9;}.cls-14{fill:#e88d6d;}.cls-15{fill:#672212;}.cls-16{fill:#792d1d;}.cls-17{opacity:0;}.cls-18{clip-path:url(#clip-path-2);}.cls-19{fill:#d1cafc;}.cls-20{clip-path:url(#clip-path-3);}.cls-21{fill:#a69fed;}.cls-22{opacity:0.1;}.cls-23{fill:#f7ca3e;}.cls-24{clip-path:url(#clip-path-4);}.cls-25{fill:#02308e;}.cls-26{clip-path:url(#clip-path-5);}.cls-27{fill:#07359b;}.cls-28{fill:#5276f7;}.cls-29{clip-path:url(#clip-path-6);}.cls-30{fill:#445ab7;}.cls-31{fill:#e57700;}.cls-32{fill:#ffb255;}.cls-33{fill:#c65d17;}.cls-34{fill:#ffe67b;}.cls-35{clip-path:url(#clip-path-7);}.cls-36{fill:#8c3711;}.cls-37{clip-path:url(#clip-path-8);}.cls-38{fill:#051e9b;}.cls-39{clip-path:url(#clip-path-9);}.cls-40{fill:#231200;}.cls-41{clip-path:url(#clip-path-10);}.cls-42{fill:#972816;}.cls-43{fill:#471100;}.cls-44{clip-path:url(#clip-path-11);}.cls-45{fill:#fff6de;}.cls-46{clip-path:url(#clip-path-12);}.cls-47{fill:#04153f;}.cls-48{clip-path:url(#clip-path-13);}.cls-49{fill:#4252c6;}.cls-50{clip-path:url(#clip-path-14);}.cls-51{opacity:0.18;}.cls-52{fill:#f9b869;}.cls-53{clip-path:url(#clip-path-15);}.cls-54{fill:#000002;}.cls-55{opacity:0.57;}.cls-56{fill:#540a0a;}.cls-57{clip-path:url(#clip-path-16);}.cls-58{clip-path:url(#clip-path-17);}.cls-59{fill:#a8111c;}.cls-60{clip-path:url(#clip-path-18);}.cls-61{fill:#446ae2;}.cls-62{clip-path:url(#clip-path-19);}.cls-63{fill:#717fd3;}.cls-64{fill:#e88b2e;}.cls-65{fill:#ead9c5;}.cls-66{clip-path:url(#clip-path-20);}.cls-67{fill:#70330a;}.cls-68{fill:#ffc44d;}.cls-69{clip-path:url(#clip-path-21);}.cls-70{fill:#03034c;}.cls-71{clip-path:url(#clip-path-22);}.cls-72{fill:#f49769;}.cls-73{clip-path:url(#clip-path-23);}.cls-74{fill:#db3721;}.cls-75{clip-path:url(#clip-path-24);}.cls-76{clip-path:url(#clip-path-25);}.cls-77{clip-path:url(#clip-path-26);}.cls-78{fill:#c15634;}.cls-79{fill:#e8991a;}.cls-80{fill:#f1a55a;}.cls-81{fill:#365abf;}.cls-82{fill:#fefefe;}.cls-83{fill:#080072;}</style><clipPath id="clip-path"><path class="cls-9" d="M1996.22,2244.38l23.89-161.81c-13.37-9.69-22-30.73-22-58.67,0-46.82,24.33-95.24,54.34-108.17s54.33,14.55,54.33,61.37c0,28.32-8.91,57.21-22.58,78.49l20,144c3.52,25.4-9.66,56.26-27.27,63.85l-53.63,23.09C2005.18,2294.3,1991.9,2273.6,1996.22,2244.38Z"/></clipPath><clipPath id="clip-path-2"><path class="cls-1" d="M1831.6,784.63c278.28-62.67,509.28-324.08,1142-324.08s802.49,537.05,706.81,956.82-685.51,625.1-1080.28,654.34c-750,55.55-1179-77.17-1407.45-185.19s-336.43-456.81-182.1-734.59S1489,861.79,1831.6,784.63Z"/></clipPath><clipPath id="clip-path-3"><ellipse class="cls-2" cx="2267.87" cy="2498.68" rx="1329.49" ry="261.32"/></clipPath><clipPath id="clip-path-4"><path class="cls-7" d="M979,2038.78s-13.37-225.31-68.93-364.2S931.64,1510,962.5,1548s70,161.53,85.4,303.51c12.34,199.59-5.31,343.17-5.31,343.17s-12.32,13.57-19.45,14.73S979,2038.78,979,2038.78Z"/></clipPath><clipPath id="clip-path-5"><path class="cls-8" d="M1042.59,2397.08s-.52-1.72-1.54-4.92c-8.3-26.15-49.85-151.08-113.79-242.52C855.5,2047,743.36,1878.29,709.41,1799.07s-39.1-171.82,27.78-174.91,135.8,146.1,175.93,234.58,99.42,233.37,129.47,379.36Z"/></clipPath><clipPath id="clip-path-6"><path class="cls-13" d="M1243.11,2493.63l666.26-221.11c40.74-13.52,73.76-60.71,73.76-105.41V671.29c0-44.7-33-70-73.76-56.44L1243.11,836c-40.74,13.52-73.77,60.71-73.77,105.4V2437.19C1169.34,2481.88,1202.37,2507.15,1243.11,2493.63Z"/></clipPath><clipPath id="clip-path-7"><path class="cls-14" d="M2480.55,848.93l-11.35,8.24s-2.19,72.19-4.25,77-38.75,12.69-38.75,12.69,41.83,50.41,85.73,65.16c39.44-29.84,59.67-50.42,59.33-55.56-9.94-2.06-31.21-11.32-31.55-13s0-41.16,0-41.16l-39.9-59.08Z"/></clipPath><clipPath id="clip-path-8"><path class="cls-14" d="M2739.82,1145.24s59.16,102.88,63.27,108.54,169,147.92,203,159.23c23.15,31.38-29.38,82.52-29.38,82.52s-151.22-96.13-197.1-129.86c-48.28-35.5-66-48.61-80.69-71.76s-52.73-91.06-52.73-91.06Z"/></clipPath><clipPath id="clip-path-9"><path class="cls-15" d="M2327.77,1400.53l-12.35,12.72s-28.8,70-29.83,147.13,81.28,200.62,107,235.6,74.07,109.06,74.07,122.43,5.15,106,34,179,135.81,351.86,135.81,351.86,63.79,35.5,126.55-30.35c-39.1-132.72-107.52-487.15-125-532.42s-60.18-189.31-70.47-253.1,2.57-95.68,28.81-118.06,90.53-54.78,90.53-54.78l-59.67-33.95Z"/></clipPath><clipPath id="clip-path-10"><path class="cls-12" d="M2586.14,1988.92s-17.93,28.6-25.46,92.74-5.09,103-16.53,125-60.39,41.66-84.16,23.79-47.54-105.77-63.82-169.06-34.64-120.65-27-131.36,36.71-15.73,43.06-12.18c16.7-9,38.79-21.65,114.06-29.57C2549.71,1935.07,2586.14,1988.92,2586.14,1988.92Z"/></clipPath><clipPath id="clip-path-11"><path class="cls-16" d="M2670.37,1461.61l16.46-1s185.19,94.65,248,124.49,107,62.76,99.8,142-98.51,114.54-260.55,187.58-195,85.4-195,85.4-55.19-38.41-55.19-111.46c149.59-88.48,281.28-166.67,281.28-166.67l-266.47-114.2S2526.34,1526.42,2670.37,1461.61Z"/></clipPath><clipPath id="clip-path-12"><rect class="cls-3" x="2900.45" y="1654.6" width="34.31" height="821.86" rx="16.27" transform="translate(5835.21 4131.05) rotate(180)"/></clipPath><clipPath id="clip-path-13"><polygon class="cls-4" points="2879.89 1676.88 2883.29 1709.24 2816.5 1734.06 2590.94 1620.01 2595.17 1595.43 2995.4 1467.12 2879.89 1676.88"/></clipPath><clipPath id="clip-path-14"><path class="cls-4" d="M2852.67,1720.27l334.27-120.49c45.13-16.26,80.85-57.89,89.66-104.5l50.68-268.06L2918,1374.74Z"/></clipPath><clipPath id="clip-path-15"><path class="cls-5" d="M2513.65,999.83c13.36,1.22,34.12-23.49,43-32.24s10.28-15.94,20.06-13.54,59.67,16.51,71.33,22.66,46,64.62,68.08,104.23,36,61.21,36,61.21-6.69,64.82-100.32,93.11c-4.63,37.56-7.2,102.37-8.74,128.09s-18,36.53-18,36.53-103.49,50.92-303.29-19.55c-18.22-22.64-20.79-35-21.82-79.74s8.75-107.51,0-190.33S2293.3,984,2326.48,967.77s94.14-29,100.57-28.16,8,9.12,21.61,21.47S2493,997.94,2513.65,999.83Z"/></clipPath><clipPath id="clip-path-16"><path class="cls-6" d="M2455.63,1184.85s90.12,130.24,108.77,151.24c81.79,92.08,154.82,159.44,154.82,159.44s12.47,67.75-48.26,67.75c-95.24-83.15-156.32-134.08-189.12-166s-127.84-161-127.84-161Z"/></clipPath><clipPath id="clip-path-17"><path class="cls-5" d="M2299.43,992.85c15.79-17.44,49.23,1.71,89.43,49.17s82.43,136.6,82.43,136.6-57.65,77.17-136.26,67.19c-32.72-71.13-41.67-105.88-51.46-139.65S2277.82,1016.72,2299.43,992.85Z"/></clipPath><clipPath id="clip-path-18"><path class="cls-7" d="M3539.64,1709.43S3442,1740.34,3409.34,1880,3446,2109,3446,2109s104.55-47.95,126.79-175.73S3539.64,1709.43,3539.64,1709.43Z"/></clipPath><clipPath id="clip-path-19"><path class="cls-8" d="M3787.69,2030s-72.39-27.13-156.89,40.63-84.88,153.09-84.88,153.09,84.44,20.24,157.19-45.3S3787.69,2030,3787.69,2030Z"/></clipPath><clipPath id="clip-path-20"><path class="cls-10" d="M2015.8,2290.12a17.29,17.29,0,0,1-10.68-3.69c-9.47-7.28-13.63-23.5-10.84-42.34l1.94.29-1.94-.29L2018,2083.43c-13.93-10.78-21.89-32.38-21.89-59.53,0-47.45,24.91-96.78,55.52-110,11.82-5.09,23.2-4.4,32.92,2,15.13,10,24.16,32.82,24.16,61.17,0,27.25-8.41,56.7-22.51,78.94l19.88,143.27c3.68,26.51-9.87,57.93-28.43,65.92l-53.63,23.1A20.9,20.9,0,0,1,2015.8,2290.12Zm51.1-375.61a34.55,34.55,0,0,0-13.72,3c-29.3,12.62-53.15,60.33-53.15,106.36,0,26.11,7.94,47.45,21.23,57.08l1,.69-24.06,163c-2.54,17.17,1.13,32.35,9.35,38.66,4.28,3.29,9.45,3.77,15,1.4l53.63-23.09c16.82-7.25,29.5-37.27,26.1-61.78l-20.08-144.71.39-.61c13.95-21.7,22.27-50.65,22.27-77.43,0-27-8.37-48.67-22.39-57.9A27.83,27.83,0,0,0,2066.9,1914.51Z"/></clipPath><clipPath id="clip-path-21"><path class="cls-11" d="M2500.1,683.29l-10.29,6.43s-23.66-3.6-40.12,21.86-11.83,55.56-6.18,69.45,21.53,49.39,25.69,76.14c11.61,18.26,27.81,0,27.81,0s13.49-67.47,13.65-68.26,4.36-66.5,4.36-66.5Z"/></clipPath><clipPath id="clip-path-22"><path class="cls-6" d="M2530.11,735.59s39.09-24.35,74.76-6.86,47,46.64,47,55.56-12.69,75.79-18.52,90.88-31.89,62.42-54.18,64.13-26.75-3.77-41.5-14.4-37-40.47-41.49-54.87a111.87,111.87,0,0,1-4.46-29.15s-17.49-6.18-19.89-28.13,14.4-31.89,28.46-27.09C2502.33,771.94,2513.36,743.29,2530.11,735.59Z"/></clipPath><clipPath id="clip-path-23"><path d="M2554.56,879.74c-4.52-1.76-8.18,3.88-2.55,11.08,2.2,2.81,12.09,13.89,26.06,14.34s18.33-10,19.76-13.5.72-6.57-4-6.35c-4,.19-5.66,1.29-14,.55S2558.33,881.22,2554.56,879.74Z"/></clipPath><clipPath id="clip-path-24"><path class="cls-11" d="M2489.81,689.72s24.18-44.5,62.5-30.61c34.21-8.48,69.19,6.69,93.11,45.53s32.41,50.41,46,47.33c5.15,37-23.4,46.81-51.44,36s-27.51-48.56-68.42-52.22-60.14,49.09-60.14,49.09l-8.23,41.66-4.16.82,1.2-41.67s-3.51-9.26,2.92-35.49S2504.73,696.41,2489.81,689.72Z"/></clipPath><clipPath id="clip-path-25"><path class="cls-12" d="M2758.6,2422.8s21.34,21.35,81,46,97.74,32.92,115.74,49.9,23.66,69.44,0,87.45-114.71,17-180.05,15.43-125.51.52-133.74-9.77-5.15-39.61,0-44.76c-4.12-18.52-9.26-40.12,3.6-114.71,18.52,6.17,42.23,6.84,59.93,2.06C2737,2445.81,2758.6,2422.8,2758.6,2422.8Z"/></clipPath><clipPath id="clip-path-26"><path class="cls-6" d="M2708.4,1498.09l10.82-2.56s48.3,9.32,76.46,15.08,59.56,50.36,60.51,59.4,6.94,70.81-1.67,76.5c-2.86,1.89-9.68,1.53-18-.41-6.5-2.6-6.52-8.68-6.89-13.23-.72,8.41-3.36,9.62-6,9.33-.27,0-.54-.08-.81-.13a11.43,11.43,0,0,1-3.3-1.45c-3-1.8-6.54-5-7.93-8.94-2-5.52-4.85-21.42-4.85-21.42s2.44,13.45-3.37,15.32c-7.81,2.51-13.93-6.64-14.91-7.94-12.81-17.06-22.58-25.11-45.63-33.08s-59.07,4.22-75.49-27.07a41,41,0,0,1,.17-18.78C2672,1518.47,2688.22,1502.87,2708.4,1498.09Z"/></clipPath></defs><title>05</title><g id="_05" data-name="05"><rect id="_05-2" data-name="05" class="cls-17" width="4680" height="3120"/><path class="cls-1" d="M2051.53,368c-134.27-35.49-188.69,56-299.4,113.34-89.75,46.49-169.75,33.27-241.86,62.59s-114.63,194.45,82.91,198,242.29-19,388.08-88.15S2185.79,403.45,2051.53,368Z"/><path class="cls-1" d="M1831.6,784.63c278.28-62.67,509.28-324.08,1142-324.08s802.49,537.05,706.81,956.82-685.51,625.1-1080.28,654.34c-750,55.55-1179-77.17-1407.45-185.19s-336.43-456.81-182.1-734.59S1489,861.79,1831.6,784.63Z"/><g class="cls-18"><path class="cls-19" d="M1823,1280.68C1132,1368.2,987.42,952.51,987.42,952.51l-255.13,495s114.9,511.64,122.86,530.67,843.78,189.31,902,207.88,871.33,166,909.2,162.31,885-348.31,885-348.31,316.75-335,400.19-1007.53C3134.24,540.6,2513.91,1193.16,1823,1280.68Z"/></g><ellipse class="cls-2" cx="2267.87" cy="2498.68" rx="1329.49" ry="261.32"/><g class="cls-20"><ellipse class="cls-21" cx="2740.26" cy="2537.64" rx="519.82" ry="154.75"/><path class="cls-21" d="M2020.63,2175.7c-140.93-10.28-930.38,287.93-930.38,287.93-46,8.17-95.33,29.62-47.66,70.47S1175,2624,1233.23,2613.76s449.36-184.85,518.81-164.43,51.06,61.28,222.64-15.32,334-148.75,305.36-195.91S2161.57,2186,2020.63,2175.7Z"/></g><g class="cls-22"><path class="cls-23" d="M3283.32,683.29H2995.4V2476.46h582.69V978.06C3578.09,815.26,3446.12,683.29,3283.32,683.29Z"/></g><path class="cls-7" d="M979,2038.78s-13.37-225.31-68.93-364.2S931.64,1510,962.5,1548s70,161.53,85.4,303.51c12.34,199.59-5.31,343.17-5.31,343.17s-12.32,13.57-19.45,14.73S979,2038.78,979,2038.78Z"/><g class="cls-24"><path class="cls-25" d="M1000.93,1752.51l-2-10c-.68-3.32-1.51-6.61-2.25-9.92l-2.29-9.91q-1.11-5-2.43-9.87c-1.73-6.55-3.37-13.13-5.18-19.66s-3.65-13-5.62-19.53c-4-12.94-8.09-25.86-12.75-38.58s-9.47-25.37-15.12-37.67c2.34,6.35,4.48,12.75,6.55,19.18s4.1,12.86,6,19.35c3.85,12.93,7.35,26,10.66,39,1.64,6.54,3.18,13.1,4.78,19.64s2.91,13.16,4.37,19.73c.35,1.65.73,3.29,1.06,4.94l1,5,2,9.9c.64,3.31,1.37,6.59,1.94,9.91l1.76,10c2.47,13.23,4.3,26.57,6.45,39.85l2.6,20c.42,3.34.9,6.67,1.27,10l1,10c.64,6.7,1.44,13.38,2.07,20.07l1.58,20.11.77,10.06.49,10.07,1,20.16c.24,6.72.39,13.45.59,20.17s.43,13.46.39,20.19l.08,20.2,0,5-.09,5-.13,10.1-.11,10.1-.06,5-.14,5-.59,20.21c-.14,6.74-.57,13.47-.83,20.2s-.48,13.48-.91,20.21l-1.11,20.19-1.33,20.19c-.39,6.74-.92,13.46-1.43,20.19l-.77,10.1-.85,10.08c-1,13.46-2.31,26.9-3.61,40.35-.62,6.72-1.32,13.44-2,20.16s-1.44,13.43-2.2,20.15c2.63-13.26,4.9-26.6,7-40,1.11-6.68,2-13.38,3-20.07s1.85-13.4,2.75-20.11c3.38-26.85,6.34-53.76,8.4-80.76.62-6.75,1-13.51,1.49-20.26l.66-10.13.31-5.07.24-5.08,1-20.29.23-5.08.15-5.08.28-10.16c.82-27.09.43-54.21-.34-81.33C1018.1,1859.76,1012.15,1805.6,1000.93,1752.51Z"/></g><path class="cls-8" d="M1042.59,2397.08s-.52-1.72-1.54-4.92c-8.3-26.15-49.85-151.08-113.79-242.52C855.5,2047,743.36,1878.29,709.41,1799.07s-39.1-171.82,27.78-174.91,135.8,146.1,175.93,234.58,99.42,233.37,129.47,379.36Z"/><g class="cls-26"><path class="cls-25" d="M1023.34,2199.19c-5.11-14-10.5-27.83-15.85-41.7l-8.21-20.74-4.11-10.37L991,2116.05c-2.81-6.9-5.69-13.75-8.54-20.63s-5.87-13.67-8.8-20.51l-4.43-10.25-2.21-5.12-2.3-5.09-9.2-20.36-2.32-5.08-2.43-5-4.86-10.07L941,2003.84l-2.43-5-2.57-5L925.73,1974c-3.47-6.6-7.12-13.09-10.72-19.61-1.82-3.25-3.59-6.52-5.44-9.75l-5.58-9.68c-3.74-6.44-7.38-12.93-11.25-19.29s-7.59-12.81-11.48-19.16l-11.81-19c-8-12.55-16-25.1-24.31-37.44s-16.7-24.63-25.27-36.78c-4.29-6.08-8.69-12.08-13-18.11s-8.77-12-13.29-17.92-9-11.83-13.57-17.7-9.24-11.65-14-17.37c4.35,6,8.56,12.15,12.78,18.26s8.4,12.24,12.53,18.41l12.37,18.52c4.05,6.22,8.16,12.39,12.15,18.65q12.1,18.67,23.84,37.57l5.84,9.47q3,4.71,5.83,9.47c3.83,6.35,7.71,12.67,11.49,19,15.13,25.5,29.87,51.21,43.91,77.3l5.25,9.79,2.64,4.89c.89,1.62,1.77,3.25,2.59,4.91l10.07,19.75,2.51,4.94,2.4,5,4.78,10,4.77,10,2.38,5,2.29,5.07,9.24,20.2,2.32,5.05,2.23,5.09,4.46,10.18c3,6.8,6,13.56,8.88,20.39s5.74,13.67,8.67,20.48l4.36,10.23,4.26,10.28,8.53,20.55,8.34,20.63c2.82,6.87,5.63,13.73,8.36,20.63q33.06,82.68,64.76,166c-8.58-28.46-17.92-56.68-27.47-84.83S1033.79,2227,1023.34,2199.19Z"/></g><path class="cls-25" d="M793.46,2123.61c-48.61-61.51-88.51-126.39-118.59-192.86l-9.11,4.13c30.44,67.25,70.8,132.88,120,195.06a1138.77,1138.77,0,0,0,133.7,141.6c84.17,75.34,153.06,115.29,153.75,115.69l5-8.67c-23.48-13.52-85.52-54.87-152.27-114.65A1129,1129,0,0,1,793.46,2123.61Z"/><circle class="cls-7" cx="660.9" cy="1912.96" r="42.18" transform="translate(-1359.37 1791.49) rotate(-67.5)"/><path class="cls-27" d="M1890.86,486.3l-.07,0h0c-12.58-6-28.11-6.82-44.93-1.24L1101.23,732.16c-42,13.92-76,62.52-76,108.55V2456.12c0,20.63,6.85,37.22,18.17,48v0l.1.06a49.1,49.1,0,0,0,16.38,10.31l97.3,51.66,14.84-21.44,673.82-277.64c42-13.92,76-62.52,76-108.54l61.9-1567.21,11.55-26.27V543.62l-96.64-52.68A49.18,49.18,0,0,0,1890.86,486.3Z"/><path class="cls-28" d="M1948.56,539.63,1203.92,786.76c-42,13.93-76,62.52-76,108.55V2510.72c0,46,34,72.05,76,58.12l744.64-247.13c42-13.92,76-62.52,76-108.54V597.76C2024.52,551.73,1990.51,525.71,1948.56,539.63Z"/><path class="cls-13" d="M1243.11,2493.63l666.26-221.11c40.74-13.52,73.76-60.71,73.76-105.41V671.29c0-44.7-33-70-73.76-56.44L1243.11,836c-40.74,13.52-73.77,60.71-73.77,105.4V2437.19C1169.34,2481.88,1202.37,2507.15,1243.11,2493.63Z"/><g class="cls-29"><path class="cls-27" d="M1961.05,536.62,1848.33,611.2l48.73,7.73s62.39-5.22,62.39,47.25V2157.1c0,61.73-34.47,88.22-130.15,120.63s-669,216.06-674.41,216.06c40.13,50.93,128.13,90.17,119.35,72.4s654.34-223.9,668.74-226,152.27-119.34,152.27-119.34l51.44-1122.63L2052,673.38Z"/></g><path class="cls-30" d="M1769.86,1759.54l-450.44,149.35c-55.54,18.42-100.57,80.32-100.57,138.28h0c0,57.95,45,90,100.57,71.59l450.44-149.35c55.54-18.41,100.57-80.32,100.57-138.28h0C1870.43,1773.18,1825.4,1741.13,1769.86,1759.54Z"/><path class="cls-9" d="M1793.76,1770.45l-450.43,143.13c-55.55,17.65-100.57,77-100.57,132.53h0c0,55.54,45,86.26,100.57,68.61l450.43-143.13c55.55-17.65,100.57-77,100.57-132.53h0C1894.33,1783.52,1849.31,1752.8,1793.76,1770.45Z"/><polygon class="cls-27" points="1341.64 2011.51 1330.55 1978.99 1314.13 1984.44 1333.92 2033.52 1333.92 2069.6 1349.25 2064.51 1349.25 2027.75 1369.09 1966.2 1352.79 1971.61 1341.64 2011.51"/><path class="cls-27" d="M1402.32,1953.73q-14.64,4.86-22.42,19.58t-7.78,37.49q0,23,7.78,32.59t22.31,4.8q14.46-4.8,22.24-19.62t7.78-37.59q0-22.77-7.72-32.41T1402.32,1953.73Zm-.11,79.34q-7,2.31-10.58-4.71t-3.61-22.71q0-15.74,3.61-25.13t10.69-11.73q14-4.63,14,27.49T1402.21,2033.07Z"/><path class="cls-27" d="M1480.39,1990q0,8.22-2.69,13.56a13.08,13.08,0,0,1-7.61,7q-10.58,3.51-10.58-14v-60.36l-15.44,5.13v59.1q0,16.75,6.52,23.15t19,2.26a35.18,35.18,0,0,0,19.5-15.1q6.75-10.86,6.75-27.24v-59.35l-15.44,5.12Z"/><path class="cls-27" d="M1555.82,1931.46q0-13.8-6.15-18.48t-19.07-.38l-20.36,6.76v91.72l15.56-5.16v-35.7l5.54-1.84,13.21,31.31,16.65-5.52-16.07-34.88Q1555.81,1948.84,1555.82,1931.46Zm-18.13,16.71a13.49,13.49,0,0,1-7.89,6l-4,1.33v-26.6l3.88-1.29q5.33-1.77,7.87.37c1.69,1.42,2.54,4.48,2.54,9.16Q1540.09,1944,1537.69,1948.17Z"/><path class="cls-27" d="M1625.48,1894.73a12,12,0,0,1,6.35-.51,30.57,30.57,0,0,1,5.49,1.72l5.14-15.57a24.72,24.72,0,0,0-9-1.84,28.19,28.19,0,0,0-8.78,1.53q-13.9,4.61-21.71,19.69t-7.8,37.41q0,22.33,7.58,32.15t21.7,5.12a37.16,37.16,0,0,0,15.67-9.65V1949.6q-7.26,7.05-13.9,9.25-15.15,5-15.15-26.84,0-15.32,3.86-25.19T1625.48,1894.73Z"/><path class="cls-27" d="M1677.81,1862.3q-14.64,4.86-22.42,19.58t-7.78,37.5q0,23,7.78,32.58t22.3,4.8q14.47-4.8,22.25-19.61t7.78-37.6q0-22.77-7.72-32.41T1677.81,1862.3Zm-.12,79.34q-7,2.33-10.58-4.7t-3.6-22.71q0-15.75,3.6-25.13t10.7-11.74q13.95-4.63,14,27.49T1677.69,1941.64Z"/><path class="cls-27" d="M1742.26,1842.35l-22.36,7.42v91.73l20.47-6.79a42.58,42.58,0,0,0,24.28-20.08q8.43-14.81,8.44-37.52,0-21.33-8.12-30.47T1742.26,1842.35Zm10.81,65.4q-4.07,9.15-12.58,12l-5,1.67v-62.05l6.23-2.07q15.43-5.13,15.44,25.62Q1757.13,1898.58,1753.07,1907.75Z"/><polygon class="cls-27" points="1785.27 1919.81 1822.96 1907.3 1822.96 1892.37 1800.83 1899.71 1800.83 1874.3 1821.36 1867.49 1821.36 1852.68 1800.83 1859.49 1800.83 1837.66 1822.96 1830.32 1822.96 1815.57 1785.27 1828.08 1785.27 1919.81"/><path class="cls-31" d="M1522.76,926.3,1271.44,1280l388.91,281.91,212-384.79L1592.76,919A46.87,46.87,0,0,0,1522.76,926.3Z"/><polygon class="cls-9" points="1327 1371.09 1620.1 1484.02 1815.6 1293.38 1815.6 940.49 1327 1066.01 1327 1371.09"/><polygon class="cls-32" points="1600.19 1418.38 1271.44 1280 1271.44 1770.45 1881.03 1575.79 1872.31 1177.12 1600.19 1418.38"/><path class="cls-33" d="M1599.61,1414.88l-331.17-139.39v499.07L1884.08,1578l-8.91-407.39Zm-325.17,351.46V1284.52l326.33,137.36,268.68-238.22,8.53,390Z"/><polygon class="cls-34" points="1271.44 1770.45 1881.03 1575.79 1600.19 1293.38 1271.44 1770.45"/><path class="cls-33" d="M1264,1776l622.63-198.82L1599.77,1288.7Zm611.45-201.55L1278.9,1764.92l321.71-466.86Z"/><path class="cls-14" d="M2480.55,848.93l-11.35,8.24s-2.19,72.19-4.25,77-38.75,12.69-38.75,12.69,41.83,50.41,85.73,65.16c39.44-29.84,59.67-50.42,59.33-55.56-9.94-2.06-31.21-11.32-31.55-13s0-41.16,0-41.16l-39.9-59.08Z"/><g class="cls-35"><path class="cls-36" d="M2461.52,827.33l-11.95,33.41s22.21,39,95,78.87c10.72-28.32,12.28-43.76,12.28-43.76l-54.41-72.65Z"/></g><path class="cls-14" d="M2739.82,1145.24s59.16,102.88,63.27,108.54,169,147.92,203,159.23c23.15,31.38-29.38,82.52-29.38,82.52s-151.22-96.13-197.1-129.86c-48.28-35.5-66-48.61-80.69-71.76s-52.73-91.06-52.73-91.06Z"/><g class="cls-37"><path d="M2741.65,1138l-111.31,68.43s-8.18,14.81,47,80.68c80.68-60.77,78.64-125.93,78.64-125.93Z"/></g><ellipse class="cls-3" cx="2481.84" cy="2484.81" rx="132.67" ry="46.51"/><ellipse class="cls-9" cx="2481.84" cy="2465.62" rx="132.67" ry="46.51"/><rect class="cls-3" x="2460.96" y="1743.2" width="42.03" height="719.89" rx="20.86"/><path class="cls-3" d="M2247,1739.35c0,38.3,105.15,69.35,234.86,69.35s234.85-31,234.85-69.35V1627.83H2247Z"/><ellipse class="cls-38" cx="2481.84" cy="1627.83" rx="234.85" ry="69.35"/><path class="cls-15" d="M2327.77,1400.53l-12.35,12.72s-28.8,70-29.83,147.13,81.28,200.62,107,235.6,74.07,109.06,74.07,122.43,5.15,106,34,179,135.81,351.86,135.81,351.86,63.79,35.5,126.55-30.35c-39.1-132.72-107.52-487.15-125-532.42s-60.18-189.31-70.47-253.1,2.57-95.68,28.81-118.06,90.53-54.78,90.53-54.78l-59.67-33.95Z"/><g class="cls-39"><path class="cls-40" d="M2646.19,1832.08s-258.92,16.74-297.47-35.6l18.67,91.75s90.35,276.17,135.6,372.17,97,94.08,97,94.08-28.89-124.72-26.85-257.49,144-113.36,135.83-130.72S2646.19,1832.08,2646.19,1832.08Z"/><path class="cls-9" d="M2544.28,1976c-.63-54.54-17.1-76.12-53.18-123.4-8.38-11-17.88-23.44-28.53-38-63.26-86.83-102.46-169.86-123.27-261.15,23.65-14,41-32.84,51.51-55.91,8.56-18.75,12.66-40.33,12.19-64.13-.81-40.38-14.76-73.72-14.9-74l-3.68,1.56c.14.33,13.79,32.95,14.58,72.57.46,23.2-3.52,44.19-11.83,62.39-10.36,22.71-27.57,41.17-51.14,54.86l-1.27.74.32,1.43c20.85,92.4,60.33,176.31,124.26,264,10.67,14.64,20.19,27.12,28.58,38.12,36.6,48,51.74,67.81,52.36,121,.92,78.94,10.93,193.5,53.41,290.91,44.16,101.27,69.85,213.8,70.1,214.92l3.9-.88c-.25-1.13-26-114-70.33-215.64C2555.15,2168.56,2545.2,2054.58,2544.28,1976Z"/><path class="cls-9" d="M2604.78,2402.74l9.26,55.83,67.91,19.79,112.65-47.07s-1.54-32.41-27.77-89.51C2737.5,2408.91,2604.78,2402.74,2604.78,2402.74Z"/></g><path class="cls-12" d="M2586.14,1988.92s-17.93,28.6-25.46,92.74-5.09,103-16.53,125-60.39,41.66-84.16,23.79-47.54-105.77-63.82-169.06-34.64-120.65-27-131.36,36.71-15.73,43.06-12.18c16.7-9,38.79-21.65,114.06-29.57C2549.71,1935.07,2586.14,1988.92,2586.14,1988.92Z"/><g class="cls-41"><path class="cls-42" d="M2412.25,1917.8l-2-20.28c-44.67-2.89-59.56,23.78-59.56,23.78s39.27,207,39.83,209,58.14,119.62,58.14,119.62l55.73-4.27s-21.68-31.29-61.4-168S2412.25,1917.8,2412.25,1917.8Z"/><circle class="cls-9" cx="2480.11" cy="1968.12" r="33.2" transform="translate(-448.16 3172.13) rotate(-60.79)"/><path class="cls-43" d="M2593.68,2052.87a3,3,0,0,1-1.7-.52c-.36-.25-36.63-24.92-74.13-26.18a3,3,0,1,1,.2-6c39.29,1.33,75.79,26.18,77.33,27.23a3,3,0,0,1-1.7,5.47Z"/><path class="cls-43" d="M2589.14,2073.72a3,3,0,0,1-1.63-.48c-.34-.22-34.19-21.88-70.37-22.37a3,3,0,0,1,0-6h.05c37.94.52,72.11,22.4,73.55,23.33a3,3,0,0,1-1.64,5.52Z"/><path class="cls-43" d="M2584.6,2094.57a3,3,0,0,1-1.54-.43c-.31-.19-31.3-18.57-65.86-18.57h-.78a3,3,0,0,1,0-6h.82c36.25,0,67.61,18.63,68.94,19.43a3,3,0,0,1-1.56,5.57Z"/><path class="cls-43" d="M2580.07,2115.42a3,3,0,0,1-1.44-.37c-.29-.16-29.34-15.82-62.88-14.78a3,3,0,0,1-.19-6c35.24-1.09,64.72,14.84,66,15.52a3,3,0,0,1-1.45,5.63Z"/><path class="cls-43" d="M2575.54,2136.26a2.92,2.92,0,0,1-1.31-.3c-.26-.12-26.9-12.81-59.17-11a3,3,0,0,1-.34-6,138.12,138.12,0,0,1,62.13,11.59,3,3,0,0,1-1.31,5.7Z"/><path class="cls-43" d="M2571,2157.11a3,3,0,0,1-1.13-.22c-.35-.14-24.57-9.8-55.5-7.23a3,3,0,0,1-.49-6c32.48-2.7,57.22,7.23,58.26,7.65a3,3,0,0,1-1.14,5.78Z"/></g><path class="cls-16" d="M2670.37,1461.61l16.46-1s185.19,94.65,248,124.49,107,62.76,99.8,142-98.51,114.54-260.55,187.58-195,85.4-195,85.4-55.19-38.41-55.19-111.46c149.59-88.48,281.28-166.67,281.28-166.67l-266.47-114.2S2526.34,1526.42,2670.37,1461.61Z"/><g class="cls-44"><path class="cls-9" d="M2488.27,1881.89,2544.6,2027s75.62,7,92.59-42.44c-70.22-70.21-73.3-137.35-73.3-137.35Z"/><path class="cls-40" d="M2843.28,1515.89c-59.75-27.58-167-76.6-167-76.6l-181.78,74.55-6.13,129.7,84.76,122.56c4.09,0,240,115.4,372.77,97s136.85-55.15,124.6-90.89S2903,1543.46,2843.28,1515.89Z"/></g><ellipse class="cls-3" cx="2915.31" cy="2488.42" rx="155.22" ry="54.41"/><ellipse class="cls-45" cx="2915.31" cy="2465.97" rx="155.22" ry="54.41"/><rect class="cls-3" x="2900.45" y="1654.6" width="34.31" height="821.86" rx="16.27" transform="translate(5835.21 4131.05) rotate(180)"/><g class="cls-46"><rect class="cls-47" x="2852.67" y="1773.76" width="159.31" height="76"/></g><ellipse class="cls-3" cx="2915.31" cy="1678.77" rx="390.7" ry="136.97"/><ellipse class="cls-9" cx="2915.31" cy="1632.5" rx="390.7" ry="136.97"/><polygon class="cls-4" points="2879.89 1676.88 2883.29 1709.24 2816.5 1734.06 2590.94 1620.01 2595.17 1595.43 2995.4 1467.12 2879.89 1676.88"/><g class="cls-48"><path class="cls-49" d="M2551.7,1591.92s4.09,56.46,6.13,56.07,70.2,53.28,84.52,71.66,168.3,55.21,168.3,55.21l13.67-60.92-254.21-131.46Z"/></g><path class="cls-9" d="M2892.37,1360.74l-65,354.18,25.26,5.35,315.25-113.63c38.91-14,70.56-48.48,81.3-88.51l78.06-290.91-25.63-14Z"/><path class="cls-4" d="M2852.67,1720.27l334.27-120.49c45.13-16.26,80.85-57.89,89.66-104.5l50.68-268.06L2918,1374.74Z"/><g class="cls-50"><g class="cls-51"><polygon class="cls-9" points="2762.97 1634.81 2752.16 1691.39 3263.54 1184.85 3119.3 1265.62 2762.97 1634.81"/></g><g class="cls-51"><polygon class="cls-9" points="3301.99 1191.63 2827.41 1697.18 2829.09 1812.38 3353.4 1246.7 3327.28 1184.85 3301.99 1191.63"/></g></g><ellipse class="cls-9" cx="3097.01" cy="1471.21" rx="54.73" ry="30.44" transform="translate(340.35 3510.02) rotate(-61.9)"/><path class="cls-52" d="M2327.77,1353.58l-6,26.75-6.39,32.92s80.25,30.87,172.85,34,138.89-20.57,138.89-20.57l-4.11-40.13Z"/><path class="cls-5" d="M2513.65,999.83c13.36,1.22,34.12-23.49,43-32.24s10.28-15.94,20.06-13.54,59.67,16.51,71.33,22.66,46,64.62,68.08,104.23,36,61.21,36,61.21-6.69,64.82-100.32,93.11c-4.63,37.56-7.2,102.37-8.74,128.09s-18,36.53-18,36.53-103.49,50.92-303.29-19.55c-18.22-22.64-20.79-35-21.82-79.74s8.75-107.51,0-190.33S2293.3,984,2326.48,967.77s94.14-29,100.57-28.16,8,9.12,21.61,21.47S2493,997.94,2513.65,999.83Z"/><g class="cls-53"><path class="cls-9" d="M2255.53,1124.74s-14.3,34.72-8.55,53.88c263.86,45.2,417.57,10,417.57,10s5.21-22.35-6.64-50.56C2491.44,1166.61,2255.53,1124.74,2255.53,1124.74Z"/><path class="cls-9" d="M2249.4,1212.82s-14.3,34.72-8.54,53.88c263.85,45.2,417.56,10,417.56,10s5.21-22.35-6.64-50.55C2485.31,1254.69,2249.4,1212.82,2249.4,1212.82Z"/><path class="cls-54" d="M2675,1195.65c-9.77-42.69-9.77-100.82-28.29-139.4,0,0,12.4,78.78,5.14,179,28.3,36,74.59-16.46,74.59-16.46S2684.78,1238.35,2675,1195.65Z"/><g class="cls-55"><path class="cls-56" d="M2600.46,1353.58c-40.59-37.2-105.21-166.55-123.8-197.18-12.61-20.77-50.14-79.74-73-115.57a98.12,98.12,0,0,0-58.21-42.4c-6.63-1.7-12-2.49-13.83-1.35-23.19,14.21-35.48,74.26-53.08,132.51,31.94,98.81,223.12,317.1,225.42,323.23s72-4.59,87-14.55,55.25-37.74,55.25-37.74S2641.06,1390.78,2600.46,1353.58Z"/></g></g><path class="cls-6" d="M2455.63,1184.85s90.12,130.24,108.77,151.24c81.79,92.08,154.82,159.44,154.82,159.44s12.47,67.75-48.26,67.75c-95.24-83.15-156.32-134.08-189.12-166s-127.84-161-127.84-161Z"/><g class="cls-57"><polygon class="cls-36" points="2315.42 1222.45 2388.29 1320.38 2471.29 1184.85 2451.1 1161.19 2315.42 1222.45"/></g><path class="cls-5" d="M2299.43,992.85c15.79-17.44,49.23,1.71,89.43,49.17s82.43,136.6,82.43,136.6-57.65,77.17-136.26,67.19c-32.72-71.13-41.67-105.88-51.46-139.65S2277.82,1016.72,2299.43,992.85Z"/><g class="cls-58"><path class="cls-59" d="M2275.53,1014.27l.17-2.26S2275.59,1012.76,2275.53,1014.27Z"/><path class="cls-59" d="M2326.25,1145.24c-49-79.9-51.06-121.27-50.72-131-.8,11.29-4.17,62.53-2.13,98.47,2.3,40.59,24.51,75.83,34.47,134s19.91,28.42,70.47,32.25,39.06-16.85,39.06-16.85S2382.93,1237.59,2326.25,1145.24Z"/></g><path class="cls-25" d="M3540.79,2214.85c-80.16,60.54-119.82,144-151.7,211l-.63,1.34c3.6-77.27,19.46-153.19,33.21-206.45,17.41-67.42,35.29-114.1,35.46-114.56a8.5,8.5,0,1,0-15.86-6.11c-.18.47-18.35,47.87-36,116.18-29.54,114.35-35.08,198.76-34.53,249.44l.38,34.65,15.7-30.89c5.74-11.29,11.51-23.44,17.63-36.3,31.07-65.37,69.75-146.73,146.59-204.76a8.5,8.5,0,1,0-10.25-13.56Z"/><path class="cls-7" d="M3539.64,1709.43S3442,1740.34,3409.34,1880,3446,2109,3446,2109s104.55-47.95,126.79-175.73S3539.64,1709.43,3539.64,1709.43Z"/><g class="cls-60"><path class="cls-61" d="M3369.48,1764.57c-2.29.76-12.25,268.85-12.25,268.85S3384.8,2120,3446,2109c-11.52-208.18,93.6-399.55,93.6-399.55l20.57-21.46C3453,1669.59,3371.78,1763.8,3369.48,1764.57Z"/><path class="cls-25" d="M3487.66,1826.41c-2.48,7.09-4.76,14.25-7,21.4-4.58,14.31-8.65,28.78-12.4,43.33s-7.11,29.21-10.07,43.95a750.54,750.54,0,0,0-12.61,89.29l-.45,5.62-.35,5.63c-.23,3.75-.48,7.5-.65,11.25l-.36,11.27-.17,5.63,0,5.64v11.27c.1,3.75.16,7.5.29,11.26.15,7.5.77,15,1.27,22.47.29-3.75.5-7.49.75-11.22l.32-5.61.44-5.59c.31-3.73.54-7.46.81-11.18l1-11.16.47-5.57.57-5.57,1.16-11.13c1-7.4,1.61-14.82,2.68-22.2,1.92-14.77,4.16-29.5,6.58-44.19l1.86-11c.63-3.67,1.34-7.33,2-11l1-5.5,1.06-5.48c.72-3.65,1.39-7.31,2.16-11,5.87-29.2,12.65-58.22,20.14-87.1l2.87-10.81c1-3.6,2-7.19,2.94-10.8l3-10.8,3.1-10.76q6.15-21.55,13-43c-6.61,13.48-12.23,27.41-17.64,41.41C3492.68,1812.26,3490.16,1819.33,3487.66,1826.41Z"/><path class="cls-25" d="M3530.14,1860.45a69.63,69.63,0,0,0-24.76,4.23l-3,1.2-2.91,1.36c-1,.45-1.89,1-2.83,1.55l-1.4.79c-.46.28-.91.59-1.35.89a49.54,49.54,0,0,0-13.75,13.42c-.58.88-1.12,1.8-1.66,2.71l-.8,1.37-.68,1.43c-.44,1-.9,1.9-1.3,2.87s-.7,2-1,3c-.16.5-.34,1-.46,1.48l-.35,1.53c-.2,1-.43,2-.58,3,5.11-6.49,10.17-12.24,16.18-16.69a25.71,25.71,0,0,1,2.24-1.64c.77-.52,1.51-1.07,2.28-1.57s1.59-.94,2.36-1.43,1.62-.9,2.42-1.35l1.2-.66,1.24-.61c.84-.39,1.64-.84,2.5-1.17l2.54-1.12,2.59-1a126.67,126.67,0,0,1,21.9-5.78c7.61-1.38,15.39-2.3,23.55-3.2a53.1,53.1,0,0,0-11.84-3.47A73.77,73.77,0,0,0,3530.14,1860.45Z"/><path class="cls-25" d="M3459.61,1897.44a40,40,0,0,0-5.51-5,39.07,39.07,0,0,0-13.21-6.38,35.34,35.34,0,0,0-7.22-1.12,23.23,23.23,0,0,0-7.35.71c4.08,2.83,7.81,5.19,11.44,7.6s7,4.75,10.37,7.21c1.65,1.25,3.28,2.51,4.9,3.81s3.2,2.66,4.8,4.07c3.23,2.8,6.32,5.89,10.07,9.21a27.64,27.64,0,0,0-3.92-14.12A35.21,35.21,0,0,0,3459.61,1897.44Z"/><path class="cls-25" d="M3444.42,1992.16a39.1,39.1,0,0,0-18.72-11.36,35.33,35.33,0,0,0-7.23-1.12,23.17,23.17,0,0,0-7.34.71c4.08,2.83,7.81,5.19,11.43,7.6s7.05,4.75,10.38,7.21c1.65,1.25,3.28,2.51,4.9,3.81s3.2,2.66,4.8,4.07c3.23,2.8,6.31,5.89,10.07,9.2a27.63,27.63,0,0,0-3.92-14.11A35.76,35.76,0,0,0,3444.42,1992.16Z"/><path class="cls-25" d="M3481.05,1817.89a40,40,0,0,0-5.51-5,39,39,0,0,0-13.21-6.37,34.68,34.68,0,0,0-7.22-1.13,23.53,23.53,0,0,0-7.35.71c4.08,2.83,7.81,5.19,11.44,7.6s7.05,4.75,10.37,7.21c1.65,1.25,3.28,2.51,4.9,3.81s3.2,2.66,4.8,4.07c3.23,2.8,6.32,5.89,10.07,9.21a27.6,27.6,0,0,0-3.92-14.11A35.68,35.68,0,0,0,3481.05,1817.89Z"/><path class="cls-25" d="M3511.29,1954l-2.81-.17-1.41-.07c-.47,0-.94,0-1.41,0l-2.84,0c-1.88.15-3.78.28-5.66.57s-3.75.68-5.61,1.09a53.66,53.66,0,0,0-20.46,10,46.68,46.68,0,0,0-7.91,8.11,31.78,31.78,0,0,0-5.23,9.89,92.92,92.92,0,0,1,17.43-11.44,88.8,88.8,0,0,1,18.58-6.87c1.6-.37,3.21-.78,4.84-1s3.28-.55,4.92-.86c3.32-.44,6.67-.87,10.08-1.07,6.84-.54,13.84-.55,21.25-.89a57,57,0,0,0-21-7Z"/></g><path class="cls-8" d="M3787.69,2030s-72.39-27.13-156.89,40.63-84.88,153.09-84.88,153.09,84.44,20.24,157.19-45.3S3787.69,2030,3787.69,2030Z"/><g class="cls-62"><path class="cls-63" d="M3751.7,1978.27s-136.34,11.49-143.24,16.08-111.42,159.52-89.41,249.81l26.87-22.53s81.68-102.29,241.77-191.59C3832.89,1976,3751.7,1978.27,3751.7,1978.27Z"/><path class="cls-25" d="M3701.85,2074.65c-4.77,3.06-9.54,6.15-14.27,9.29a590.71,590.71,0,0,0-54.2,41.29l-6.46,5.57-3.22,2.79-3.14,2.89-12.47,11.64c-2.1,1.92-4,4-6.06,6l-6,6.09-6,6.1c-1.95,2.07-3.81,4.22-5.72,6.33q-5.68,6.36-11.29,12.77c-3.59,4.42-7.12,8.88-10.63,13.34l-5.22,6.72c-1.64,2.33-3.3,4.63-4.9,7l-4.82,7c-1.57,2.36-3.17,4.69-4.71,7.07,2-2,3.93-4.1,5.9-6.14l5.78-6.2c1.94-2,3.81-4.15,5.71-6.23l6-6q5.92-6,11.76-12.1,6.09-5.85,12.1-11.75c2-2,4-4,6-5.89l6.18-5.72,6.16-5.75c2.06-1.9,4-3.89,6.18-5.71,8.41-7.44,16.69-15,25.3-22.21q25.59-21.89,52.29-42.54l13.41-10.26,13.53-10.13c9-6.76,18.2-13.34,27.41-20-10.33,4.71-20.26,10.22-30.1,15.88C3711.51,2068.68,3706.68,2071.67,3701.85,2074.65Z"/><path class="cls-25" d="M3712.21,2114.52a50,50,0,0,0-16.84-9.39,41.46,41.46,0,0,0-9.74-1.88,35.27,35.27,0,0,0-9.94.61,34,34,0,0,0-4.77,1.31c-.77.29-1.53.61-2.28.94l-1.11.5-1.07.59c-.71.41-1.42.79-2.09,1.22s-1.32.93-2,1.42a27.75,27.75,0,0,0-3.5,3.26c6.31-1,12-1.77,17.47-1.41a17.8,17.8,0,0,1,2,.14c.68.07,1.35.1,2,.18s1.35.22,2,.29,1.33.24,2,.36a66.55,66.55,0,0,1,7.89,2,114.24,114.24,0,0,1,15.54,6.4c5.21,2.53,10.38,5.36,16,8.28a35.62,35.62,0,0,0-5-8.05A51.23,51.23,0,0,0,3712.21,2114.52Z"/><path class="cls-25" d="M3647.56,2088.5c-.63-.71-1.26-1.41-1.94-2.07a24.08,24.08,0,0,0-2.18-1.84,16.1,16.1,0,0,0-5.18-2.66c.71,3.92,1.57,7.14,2.41,10.29l2.43,9c.45,1.45.73,2.91,1.2,4.38.27,1.47.8,3,1.1,4.49.9,3.1,1.4,6.29,2.7,10.16a19.21,19.21,0,0,0,5.17-10.22,25.26,25.26,0,0,0,.43-5.76,28.57,28.57,0,0,0-.95-5.68A26.87,26.87,0,0,0,3647.56,2088.5Z"/><path class="cls-25" d="M3594.4,2137.69c-.63-.72-1.26-1.42-1.94-2.08a27.52,27.52,0,0,0-2.18-1.84,16.3,16.3,0,0,0-5.18-2.66c.71,3.93,1.57,7.14,2.4,10.3l2.44,9c.45,1.45.73,2.92,1.2,4.38.27,1.48.8,3,1.1,4.5.9,3.09,1.39,6.29,2.69,10.15a19.15,19.15,0,0,0,5.18-10.22,25.26,25.26,0,0,0,.43-5.76,29.31,29.31,0,0,0-.95-5.68A26.83,26.83,0,0,0,3594.4,2137.69Z"/><path class="cls-25" d="M3697.36,2051.24c-.62-.71-1.25-1.41-1.93-2.07a24,24,0,0,0-2.19-1.84,16.1,16.1,0,0,0-5.18-2.66c.71,3.92,1.57,7.14,2.41,10.29l2.43,9c.45,1.46.73,2.92,1.2,4.38.28,1.48.8,3,1.11,4.5.89,3.1,1.39,6.29,2.69,10.16a19.17,19.17,0,0,0,5.17-10.22,24.7,24.7,0,0,0,.43-5.76,28.57,28.57,0,0,0-.95-5.68A26.87,26.87,0,0,0,3697.36,2051.24Z"/><path class="cls-25" d="M3657.52,2161.32l-1.59-1.47c-1-1-2.24-1.84-3.37-2.75a44.15,44.15,0,0,0-7.6-4.41,38.82,38.82,0,0,0-17.23-3.43,33.37,33.37,0,0,0-8.62,1.5,22.19,22.19,0,0,0-7.66,4,88.75,88.75,0,0,1,15.6,2.28,79.58,79.58,0,0,1,13.82,4.74c2.21,1,4.38,2.12,6.57,3.27s4.33,2.45,6.49,3.82c4.38,2.67,8.69,5.7,13.65,8.64a38.56,38.56,0,0,0-8.58-14.65Z"/></g><path class="cls-64" d="M2079.48,1765.9c-39.61,15.44-302,99-323.57,121.5s-18.52,44.69-18.52,174.33v303c0,7.72,1.55,29.24,14.92,36.07s85.4,17.72,85.4,17.72l349.13-568.1c1.18-3.87,33.59-28.67,33.59-28.67l-90.53-61.85S2119.09,1750.45,2079.48,1765.9Z"/><path class="cls-52" d="M2209.56,1821.94l-360.84,133.22c-10.75,4.63-19.46,22-19.46,38.73v402.48c0,16.76,8.71,26.6,19.46,22L2209.56,2263c10.75-4.63,19.46-22,19.46-38.73V1843.91C2229,1827.15,2220.31,1817.31,2209.56,1821.94Z"/><path class="cls-65" d="M1978.84,1555.76h0c-41.14,13.36-77.35,25.33-118.24,83.2-38.9,55-53.39,133-53.39,205.9v50.2c0,13.93,8.31,22.53,18.55,19.2l29.69-9.64c10.25-3.33,18.56-17.32,18.56-31.25v-53.24c0-78.72,46.93-157.78,104.83-176.58h0c57.89-18.81,104.83,29.76,104.83,108.48v53.24c0,13.93,8.31,22.53,18.55,19.2l29.69-9.64c10.25-3.33,18.55-17.32,18.55-31.25v-50.21C2150.46,1604.5,2056.59,1536.09,1978.84,1555.76Z"/><path class="cls-9" d="M1996.22,2244.38l23.89-161.81c-13.37-9.69-22-30.73-22-58.67,0-46.82,24.33-95.24,54.34-108.17s54.33,14.55,54.33,61.37c0,28.32-8.91,57.21-22.58,78.49l20,144c3.52,25.4-9.66,56.26-27.27,63.85l-53.63,23.09C2005.18,2294.3,1991.9,2273.6,1996.22,2244.38Z"/><path d="M2015.8,2290.12a17.29,17.29,0,0,1-10.68-3.69c-9.47-7.28-13.63-23.5-10.84-42.34l1.94.29-1.94-.29L2018,2083.43c-13.93-10.78-21.89-32.38-21.89-59.53,0-47.45,24.91-96.78,55.52-110,11.82-5.09,23.2-4.4,32.92,2,15.13,10,24.16,32.82,24.16,61.17,0,27.25-8.41,56.7-22.51,78.94l19.88,143.27c3.68,26.51-9.87,57.93-28.43,65.92l-53.63,23.1A20.9,20.9,0,0,1,2015.8,2290.12Zm51.1-375.61a34.55,34.55,0,0,0-13.72,3c-29.3,12.62-53.15,60.33-53.15,106.36,0,26.11,7.94,47.45,21.23,57.08l1,.69-24.06,163c-2.54,17.17,1.13,32.35,9.35,38.66,4.28,3.29,9.45,3.77,15,1.4l53.63-23.09c16.82-7.25,29.5-37.27,26.1-61.78l-20.08-144.71.39-.61c13.95-21.7,22.27-50.65,22.27-77.43,0-27-8.37-48.67-22.39-57.9A27.83,27.83,0,0,0,2066.9,1914.51Z"/><g class="cls-66"><path class="cls-67" d="M2036.94,1922.39c-30,12.93-54.33,61.35-54.33,108.17,0,27.94,8.66,49,22,58.67L1980.75,2251c-4.31,29.22,9,49.92,27,42.14l53.64-23.09c17.6-7.58,30.79-38.45,27.26-63.85l-20-144c13.68-21.28,22.59-50.17,22.59-78.49C2091.28,1937,2067,1909.47,2036.94,1922.39Z"/></g><path class="cls-27" d="M1440.52,1131.06q-10.68-5.93-25.75-2.33a51.84,51.84,0,0,0-25.75,14.59,70.61,70.61,0,0,0-16.09,27.19,111.72,111.72,0,0,0-5.43,35.69q0,19.48,5.43,33.1t16.09,19.52q10.67,5.91,25.75,2.32a51.92,51.92,0,0,0,25.75-14.59,70.78,70.78,0,0,0,16.09-27.19,111.94,111.94,0,0,0,5.42-35.68q0-19.5-5.42-33.1T1440.52,1131.06Zm-4.88,94.77q-7.44,14.46-20.87,17.66t-20.88-7.72q-7.44-10.9-7.44-34.09t7.44-37.63q7.45-14.47,20.88-17.67t20.87,7.72q7.45,10.92,7.45,34.09T1435.64,1225.83Z"/><path class="cls-27" d="M1551.13,1102.68q-9.64-4.5-22.89-1.35a51.13,51.13,0,0,0-21.15,10.74,59.77,59.77,0,0,0-15.17,19,48.29,48.29,0,0,0-5.61,22.21,36,36,0,0,0,5.42,19.76,30.08,30.08,0,0,0,14.53,12.18,31.24,31.24,0,0,0,19.22,1.21q14.16-3.37,24.83-16.21a82.88,82.88,0,0,1-15.73,28.57A92.64,92.64,0,0,1,1510.4,1220a14.65,14.65,0,0,0-5.52,4.62,10.28,10.28,0,0,0-2,6q0,4.25,2.66,5.71a8.61,8.61,0,0,0,6.35.61,12.79,12.79,0,0,0,3.31-1.34,97.1,97.1,0,0,0,32.18-28.36,122,122,0,0,0,18-35.47q5.52-18,5.51-32.21a48.57,48.57,0,0,0-5.05-22.52A30.94,30.94,0,0,0,1551.13,1102.68Zm-5,54.88a31.65,31.65,0,0,1-18.3,11.9q-10.48,2.51-17.2-3.44t-6.71-17a32,32,0,0,1,7-20,30.42,30.42,0,0,1,17.29-11.48q11-2.62,18,3.16t7,16.45A32.78,32.78,0,0,1,1546.17,1157.56Z"/><path class="cls-27" d="M1659.55,1124.21a30.79,30.79,0,0,0-19.13-1.24q-14,3.33-24.83,16a89.94,89.94,0,0,1,15.82-29q11-13.85,23.91-21.52a14.51,14.51,0,0,0,5.51-4.62,10.25,10.25,0,0,0,2-6q0-4.41-2.49-5.85a8.52,8.52,0,0,0-6.34-.51,12.79,12.79,0,0,0-3.31,1.34,97.08,97.08,0,0,0-32.28,28.57,122.72,122.72,0,0,0-18.11,36q-5.52,18.31-5.52,32.48a47.73,47.73,0,0,0,5.15,22.5,31.38,31.38,0,0,0,14.8,14.31q9.66,4.51,22.9,1.35a51.19,51.19,0,0,0,21.15-10.74,59,59,0,0,0,15.08-19,49.25,49.25,0,0,0,5.52-22.37,35.6,35.6,0,0,0-5.43-19.67A30.33,30.33,0,0,0,1659.55,1124.21Zm-4.6,56.17a30.57,30.57,0,0,1-17.47,11.52q-11,2.63-17.93-3.18t-6.9-16.47a33.17,33.17,0,0,1,7.08-20.53,31.27,31.27,0,0,1,18.11-12q10.67-2.55,17.38,3.49t6.72,16.88A32.21,32.21,0,0,1,1655,1180.38Z"/><path class="cls-27" d="M1764.19,1095.41q-9.75-3.09-21.7-.25a54.77,54.77,0,0,0-11.5,4.21,56,56,0,0,0-9.83,6l4.78-32.59,48-11.43a10.38,10.38,0,0,0,5.79-3.68,9.86,9.86,0,0,0,2.3-6.34,6.15,6.15,0,0,0-8.09-6.35l-54.07,12.88a12,12,0,0,0-6,3.45,11,11,0,0,0-3,5.69l-6.62,49.21-.19,1.88a8.75,8.75,0,0,0,2.58,6.56c1.71,1.68,4.35,2.09,7.9,1.24a12.48,12.48,0,0,0,3.59-1.68q2.12-1.34,4.32-3,5.34-3.84,9.11-6a32.09,32.09,0,0,1,8.73-3.37q11.78-2.8,19.5,2.53t7.72,17.1a31.73,31.73,0,0,1-4.23,15.54,42.87,42.87,0,0,1-11.49,13.22,42.08,42.08,0,0,1-16.1,7.69,24.27,24.27,0,0,1-16.92-2c-2.69-1.19-4.84-1.6-6.43-1.22a10.61,10.61,0,0,0-6,3.72,9,9,0,0,0-2.3,5.61,9.65,9.65,0,0,0,1.11,4.52,7.35,7.35,0,0,0,2.94,3.16,29.47,29.47,0,0,0,12.69,3.59,48.15,48.15,0,0,0,15.08-1.2,67.46,67.46,0,0,0,42.57-32.39,50.28,50.28,0,0,0,6.53-24.55q0-12-5.52-20.29A27.86,27.86,0,0,0,1764.19,1095.41Z"/><path class="cls-68" d="M3354,771.35c-74.37,2.33-237.16,7.41-315,9.65a36.43,36.43,0,0,0-34.78,43.07c13.94,75.15,41.72,225.06,41.72,227,0,2.06,219.83-7.47,305.87-11.29a36.43,36.43,0,0,0,34.82-35.48l5-195.57A36.44,36.44,0,0,0,3354,771.35Z"/><path class="cls-13" d="M3354,841.77A43.8,43.8,0,0,0,3308,801.51c-77.46,4.26-241,13.23-325.81,17.84a43.81,43.81,0,0,0-40,54.77l44.95,173a43.8,43.8,0,0,0,44.77,32.73l138.42-7.46s21.34,88.8,22.2,88.8,105-92.22,105-92.22l30.09-2.07a43.82,43.82,0,0,0,40.66-47.2Z"/><path class="cls-33" d="M3357,841.53a46.79,46.79,0,0,0-49.22-43c-86.09,4.72-242.89,13.33-325.8,17.84a46.8,46.8,0,0,0-42.76,58.51l45,173a47,47,0,0,0,45.32,35c.83,0,1.67,0,2.51-.07l135.93-7.33c1.53,6.37,5.85,24.27,10.2,42,3.16,12.9,5.71,23.18,7.59,30.55,1.12,4.39,2,7.8,2.65,10.11,1.2,4.39,1.65,6,4.09,6,1.42,0,1.42,0,18.74-15.15,8.75-7.65,20.89-18.32,36.07-31.71,23.38-20.61,46.94-41.45,51.43-45.43l29.08-2a46.82,46.82,0,0,0,43.44-50.43Zm-1.51,208.3a40.55,40.55,0,0,1-28.11,14.08l-31.12,2.14-.76.68c-35.83,31.71-88,77.77-101.49,89.31-3.53-13-13.83-55.27-20.82-84.35l-.59-2.43-140.91,7.6a40.93,40.93,0,0,1-41.7-30.49l-45-173a40.81,40.81,0,0,1,37.28-51c82.91-4.51,239.71-13.12,325.8-17.84A40.55,40.55,0,0,1,3351,842l14.23,177.94A40.56,40.56,0,0,1,3355.51,1049.83Z"/><path class="cls-31" d="M3102.41,922.77a62.16,62.16,0,0,0-21.84-18.64,53.49,53.49,0,0,0-27.4-5.89q-14.48.71-24.56,8.43a40.57,40.57,0,0,0-14.13,20.4q-4,12.69-1,27.91a66.84,66.84,0,0,0,11.94,27.26,62.09,62.09,0,0,0,21.85,18.64,53.37,53.37,0,0,0,27.39,5.89q14.49-.71,24.57-8.43a40.57,40.57,0,0,0,14.13-20.4q4-12.68,1-27.91A66.91,66.91,0,0,0,3102.41,922.77Zm-3.87,48.66a27.91,27.91,0,0,1-26.75,21,36.17,36.17,0,0,1-19.16-4.31,43.91,43.91,0,0,1-15.3-13.71,52.07,52.07,0,0,1-8.52-20.21q-2.25-11.44.42-20.79a28.27,28.27,0,0,1,9.65-14.86,29.16,29.16,0,0,1,17.12-6,36.32,36.32,0,0,1,19.17,4.31,44,44,0,0,1,15.3,13.71,52.12,52.12,0,0,1,8.51,20.21A43.49,43.49,0,0,1,3098.54,971.43Z"/><path class="cls-31" d="M3199,894.52a8.31,8.31,0,0,0-5.53-1.63l-68.23,3.34a6.22,6.22,0,0,0-4.77,2.14,5.67,5.67,0,0,0-1.05,5,7.84,7.84,0,0,0,3,4.95A8.23,8.23,0,0,0,3128,910l26.42-1.3,16.71,84.57a8.26,8.26,0,0,0,3.18,5,8.56,8.56,0,0,0,5.87,1.84,6.48,6.48,0,0,0,5-2.38,6.13,6.13,0,0,0,1.15-5.23l-16.71-84.56,26.57-1.3a6.48,6.48,0,0,0,4.8-2.07,5.67,5.67,0,0,0,1-5.07A7.84,7.84,0,0,0,3199,894.52Z"/><path class="cls-31" d="M3294.08,904.1a38.38,38.38,0,0,0-13-11.16,29.68,29.68,0,0,0-15.48-3.58L3231,891.05a5.93,5.93,0,0,0-4.66,2.36,6.28,6.28,0,0,0-1.07,5.23l18,91.05a8.73,8.73,0,0,0,2.9,5.11,7.46,7.46,0,0,0,5.4,1.79,5.49,5.49,0,0,0,4.51-2.35A6.63,6.63,0,0,0,3257,989l-6.59-33.32,28.07-1.37a23.3,23.3,0,0,0,13.77-5.09,25.46,25.46,0,0,0,8.32-12.43,33,33,0,0,0,.71-16.63A38.89,38.89,0,0,0,3294.08,904.1Zm-7.32,26.23a15.11,15.11,0,0,1-4.07,7.28,10.41,10.41,0,0,1-6.94,3L3247.68,942l-7.39-37.38,28.07-1.37q6.12-.3,11.58,4.83a23.44,23.44,0,0,1,7,12.82A21.28,21.28,0,0,1,3286.76,930.33Z"/><path class="cls-11" d="M2500.1,683.29l-10.29,6.43s-23.66-3.6-40.12,21.86-11.83,55.56-6.18,69.45,21.53,49.39,25.69,76.14c11.61,18.26,27.81,0,27.81,0s13.49-67.47,13.65-68.26,4.36-66.5,4.36-66.5Z"/><g class="cls-69"><path class="cls-70" d="M2489.81,679.8l-11.3,7.15s22.74,13.62,20.22,46.64-17.84,74.89-53.59,84.08c15,28.94,7.83,47.61,7.83,47.61l34.39,12.31s18-8.27,20.42-12.31,20.63-97.48,20.77-103.44,4.76-28.59-1.7-37.44S2489.81,679.8,2489.81,679.8Z"/></g><path class="cls-6" d="M2530.11,735.59s39.09-24.35,74.76-6.86,47,46.64,47,55.56-12.69,75.79-18.52,90.88-31.89,62.42-54.18,64.13-26.75-3.77-41.5-14.4-37-40.47-41.49-54.87a111.87,111.87,0,0,1-4.46-29.15s-17.49-6.18-19.89-28.13,14.4-31.89,28.46-27.09C2502.33,771.94,2513.36,743.29,2530.11,735.59Z"/><g class="cls-71"><g class="cls-55"><ellipse class="cls-72" cx="2526.9" cy="857.66" rx="19.27" ry="19.67" transform="translate(1120.74 3125.59) rotate(-76.95)"/></g><g class="cls-55"><ellipse class="cls-72" cx="2641.46" cy="867.83" rx="19.27" ry="19.67" transform="translate(1199.68 3245.16) rotate(-76.95)"/></g><path d="M2558.21,804.11c-4.36-.64-8.58,3.63-9.41,9.53s2,11.2,6.39,11.84,8.57-3.64,9.41-9.54S2562.58,804.74,2558.21,804.11Z"/><ellipse cx="2617.55" cy="823.63" rx="10.79" ry="7.98" transform="translate(1445.79 3304.94) rotate(-82.19)"/><path d="M2573.77,786.74c-4-.87-16.88-4-24.37-2.94s-13.31,3.54-12.87,5.46,6.47,1,12.45.51,18.61,2.44,22.9,3.38,6,.51,6.74-.93C2580.35,788.85,2577.76,787.61,2573.77,786.74Z"/><path d="M2630.1,795.54c-4.87-2.73-14-2.7-16.83-2.78s-4.76.53-4.12,4.22c.28,1.56,1.36,2.38,4.39,2.46s12,.21,15.91,2,7.85,4.16,8.45,2.39S2635,798.28,2630.1,795.54Z"/><path d="M2554.56,879.74c-4.52-1.76-8.18,3.88-2.55,11.08,2.2,2.81,12.09,13.89,26.06,14.34s18.33-10,19.76-13.5.72-6.57-4-6.35c-4,.19-5.66,1.29-14,.55S2558.33,881.22,2554.56,879.74Z"/><g class="cls-73"><path class="cls-74" d="M2581.36,897.89c-7.8-3.64-24-8-31.15,4.17,18.54,10.17,37.79,7.44,37.79,7.44C2588.26,909.26,2589.16,901.52,2581.36,897.89Z"/></g><path class="cls-74" d="M2587,868.15c-.08.54,21.58-2.61,21.69-7.32s-12.64-42.67-12.64-42.67S2587.1,867.61,2587,868.15Z"/></g><path class="cls-11" d="M2489.81,689.72s24.18-44.5,62.5-30.61c34.21-8.48,69.19,6.69,93.11,45.53s32.41,50.41,46,47.33c5.15,37-23.4,46.81-51.44,36s-27.51-48.56-68.42-52.22-60.14,49.09-60.14,49.09l-8.23,41.66-4.16.82,1.2-41.67s-3.51-9.26,2.92-35.49S2504.73,696.41,2489.81,689.72Z"/><g class="cls-75"><path class="cls-70" d="M2700.46,758.1c-8.51,28.93-38.47,21.79-81.36-18s-78.3-14.3-104.08,9.41c-1.82-23.87-17.11-42.1-17.11-42.1-23.49,5.11-11.92,49-14.64,71.49s6.54,54.47,6.54,54.47,14.91,7.15,18.31,7.83,65-66.87,65-66.87,40.13,18.47,61.28,32.49,41.53-4.43,49.36-7.15S2715.1,766.27,2700.46,758.1Z"/><path class="cls-70" d="M2616.72,704.65c-32.68-32.34-79.32-6.81-79.32-6.81,50-8.17,72.17,8.85,90.55,30.64s48.34,39.83,56.17,32.34C2664.38,762.86,2649.4,737,2616.72,704.65Z"/></g><path class="cls-12" d="M2758.6,2422.8s21.34,21.35,81,46,97.74,32.92,115.74,49.9,23.66,69.44,0,87.45-114.71,17-180.05,15.43-125.51.52-133.74-9.77-5.15-39.61,0-44.76c-4.12-18.52-9.26-40.12,3.6-114.71,18.52,6.17,42.23,6.84,59.93,2.06C2737,2445.81,2758.6,2422.8,2758.6,2422.8Z"/><g class="cls-76"><path class="cls-42" d="M2641.57,2567.09l-20.07-3.6c-14.92,42.2,6.69,63.79,6.69,63.79s209.88,18.52,211.94,18.52,130.93-23.4,130.93-23.4l11.05-54.79s-36,12.34-178.37,13.37S2641.57,2567.09,2641.57,2567.09Z"/><circle class="cls-9" cx="2708.44" cy="2515.49" r="33.2" transform="translate(-505.49 689.56) rotate(-13.28)"/><path class="cls-43" d="M2771.71,2497.05a2.89,2.89,0,0,1-.91-.15,3,3,0,0,1-1.94-3.77c12-37.44,45.8-65.81,47.24-67a3,3,0,0,1,3.83,4.62c-.34.28-33.94,28.47-45.36,64.21A3,3,0,0,1,2771.71,2497.05Z"/><path class="cls-43" d="M2811,2509.47a2.82,2.82,0,0,1-.81-.11,3,3,0,0,1-2.08-3.7c10.06-35.66,38.09-61.62,39.27-62.71a3,3,0,0,1,4.06,4.43c-.28.25-28,25.93-37.55,59.91A3,3,0,0,1,2811,2509.47Z"/><path class="cls-43" d="M2850.25,2521.9a2.94,2.94,0,0,1-.71-.09,3,3,0,0,1-2.21-3.62c8.16-33.84,30.33-57.39,31.27-58.37a3,3,0,0,1,4.34,4.14c-.22.23-22,23.41-29.78,55.64A3,3,0,0,1,2850.25,2521.9Z"/><path class="cls-43" d="M2889.52,2534.32a3.79,3.79,0,0,1-.58-.05,3,3,0,0,1-2.37-3.52c6.24-32,22.53-53.1,23.22-54a3,3,0,1,1,4.72,3.7h0c-.16.2-16.1,20.92-22.05,51.44A3,3,0,0,1,2889.52,2534.32Z"/></g><path class="cls-6" d="M2708.4,1498.09l10.82-2.56s48.3,9.32,76.46,15.08,59.56,50.36,60.51,59.4,6.94,70.81-1.67,76.5c-2.86,1.89-9.68,1.53-18-.41-6.5-2.6-6.52-8.68-6.89-13.23-.72,8.41-3.36,9.62-6,9.33-.27,0-.54-.08-.81-.13a11.43,11.43,0,0,1-3.3-1.45c-3-1.8-6.54-5-7.93-8.94-2-5.52-4.85-21.42-4.85-21.42s2.44,13.45-3.37,15.32c-7.81,2.51-13.93-6.64-14.91-7.94-12.81-17.06-22.58-25.11-45.63-33.08s-59.07,4.22-75.49-27.07a41,41,0,0,1,.17-18.78C2672,1518.47,2688.22,1502.87,2708.4,1498.09Z"/><g class="cls-77"><path class="cls-78" d="M2829.28,1616.19c-.47-4.81-1.13-9.6-1.77-14.39s-1.5-9.56-2.39-14.33c-.47-2.38-1-4.76-1.58-7.14q-.21-.9-.48-1.8c-.18-.61-.31-1.18-.53-1.82a18.5,18.5,0,0,0-1.71-3.61,51.46,51.46,0,0,0-4.4-6.07c-1.57-1.9-3.23-3.69-4.93-5.43-3.39-3.51-7-6.77-10.65-9.93s-7.46-6.17-11.41-9c6.77,6.9,13.53,13.76,19.8,21a75.72,75.72,0,0,1,8.37,11.29,18.39,18.39,0,0,1,1.33,2.93c.17.5.3,1.11.46,1.65s.3,1.13.43,1.71c.54,2.29,1,4.63,1.45,7,.95,4.69,1.77,9.42,2.58,14.16s1.58,9.48,2.4,14.21,1.58,9.5,2.21,14.24a25.29,25.29,0,0,1-1.67,13.92,23.54,23.54,0,0,0,3.58-14.07C2830.18,1625.81,2829.78,1621,2829.28,1616.19Z"/><path class="cls-78" d="M2806.8,1623.21l-.23.27c0,.08,0,.15,0,.23Z"/><path class="cls-78" d="M2807.89,1608a29.62,29.62,0,0,0-1.63-5.14,69.81,69.81,0,0,0-4.69-9.4,100.46,100.46,0,0,0-5.69-8.73c-1-1.41-2.06-2.79-3.18-4.17a28.09,28.09,0,0,0-4-3.78c-1.38-1.13-2.81-2.15-4.25-3.14l-2.19-1.41-2.23-1.35a125.49,125.49,0,0,0-18.64-8.93c5.76,3.77,11.53,7.45,17.07,11.36l2.06,1.49,2,1.53c1.33,1,2.65,2.06,3.87,3.16a30.49,30.49,0,0,1,3.32,3.43c1,1.3,2,2.67,3,4,1.91,2.77,3.8,5.57,5.55,8.45a99.1,99.1,0,0,1,4.79,8.81,35.76,35.76,0,0,1,1.77,4.54,30.75,30.75,0,0,1,.87,4.81c.45,3.26.71,6.58.85,9.88l.23-.27-.22.5c0-.08,0-.15,0-.23-1.76,2-3.49,4-5.17,6.12q3.29-2.61,6.45-5.32l.18-.16,0-.34a73.84,73.84,0,0,0,.37-10.41A32.94,32.94,0,0,0,2807.89,1608Z"/><path class="cls-78" d="M2845.33,1647.81v0a.15.15,0,0,0,0-.07Z"/><path class="cls-78" d="M2845.33,1647.81v-.09a.15.15,0,0,1,0,.07c.59-11.09.8-22.17.76-33.27-.05-5.55-.14-11.1-.33-16.65s-.49-11.12-1-16.69l-.47-4.18c-.18-1.4-.44-2.82-.65-4.23a31.06,31.06,0,0,0-3.1-8.24,87.71,87.71,0,0,0-9.46-14,185.86,185.86,0,0,0-23.27-23.91c7.31,8.35,14.45,16.82,20.9,25.72a101.15,101.15,0,0,1,8.58,13.85,31.9,31.9,0,0,1,2.61,7.31c.18,1.34.41,2.65.57,4l.42,4.08c.46,5.46.83,11,1.12,16.49s.61,11,.83,16.57c.56,11.06,1.06,22.13,1.74,33.2v.09c.58,1.94,1.21,3.86,1.82,5.79-.35-2-.67-3.94-1.05-5.9Z"/></g><path class="cls-79" d="M3816,1070q-3.81-6.6-8.24-12.81a156.87,156.87,0,0,0-20.15-22.76c-14.84-13.84-32.07-24.92-50.3-33.65a251.94,251.94,0,0,0-28.08-11.4,219.41,219.41,0,0,0-29.25-7.83,219.8,219.8,0,0,1,29.14,8.15,253.27,253.27,0,0,1,27.9,11.69c18.07,8.91,35.09,20.13,49.66,34a156.34,156.34,0,0,1,19.73,22.73q4.32,6.17,8,12.73c2.43,4.39,4.62,8.91,6.62,13.51A152.06,152.06,0,0,1,3832.7,1143a125.86,125.86,0,0,1-3.39,29.71l-.92,3.63c-.31,1.21-.57,2.44-1,3.62l-2.27,7.15c-1.79,4.67-3.51,9.37-5.68,13.88l-1.56,3.42c-.52,1.14-1.14,2.23-1.71,3.34-1.17,2.22-2.29,4.46-3.5,6.65-2.56,4.31-5,8.69-7.85,12.82l-2.06,3.14-1,1.58-1.1,1.52-4.41,6.1c-1.43,2.06-3.07,4-4.6,6s-3.08,4-4.72,5.87a391,391,0,0,1-42.36,42.82A582.51,582.51,0,0,1,3697,1331.3c-32.9,23.24-67.75,43.65-103.4,62.44-17.86,9.34-35.89,18.36-54.17,26.87s-36.69,16.73-55.2,24.72c-74.26,31.51-150.4,58.49-227.4,82.64s-154.91,45.38-233.25,64.82-157.22,36.76-236.36,52.75-158.56,30.56-238.21,43.84-159.46,25.54-239.43,36.79c-20,2.84-40,5.53-60,8.31l-60,8q-60.08,7.88-120.17,15.42-120.22,15-240.66,28c-160.58,17.29-321.54,31.53-482.85,39-80.64,3.56-161.4,5.26-242.06,3l-7.56-.2-7.56-.27-15.11-.56c-10.07-.52-20.15-.89-30.21-1.55q-30.21-1.71-60.29-4.74c-20.06-2-40.07-4.45-60-7.66s-39.66-7-59.14-12l-7.29-1.94-3.64-1-3.61-1.07-7.23-2.13c-2.4-.74-4.77-1.56-7.16-2.33-4.8-1.5-9.48-3.32-14.2-5-2.34-.88-4.65-1.87-7-2.8l-3.48-1.41-3.43-1.54c-2.27-1-4.59-2-6.82-3.14l-6.72-3.36c-2.2-1.19-4.37-2.43-6.55-3.64l-1.64-.92-1.59-1-3.17-2A128.44,128.44,0,0,1,757.17,1749a82.5,82.5,0,0,1-16.76-24.33l-1.44-3.41c-.46-1.15-.8-2.34-1.21-3.5a67.48,67.48,0,0,1-2-7.15c-.35-1.19-.46-2.43-.69-3.64s-.45-2.43-.57-3.67c-.22-2.48-.56-4.95-.6-7.44a103.11,103.11,0,0,1,.36-14.91c.34-2.46.55-5,1.05-7.39.23-1.22.42-2.46.68-3.67l.85-3.64c.26-1.23.62-2.42,1-3.62s.66-2.4,1.06-3.59c.82-2.35,1.56-4.74,2.53-7a127,127,0,0,1,6.25-13.63c9.43-17.7,22.39-33.38,36.81-47.38a349.81,349.81,0,0,1,47.09-37.78,531.36,531.36,0,0,1,52-30.94q13.42-7,27.17-13.36c9.17-4.22,18.43-8.27,27.85-11.91-9.46,3.53-18.77,7.48-28,11.6s-18.33,8.5-27.34,13.07a532.62,532.62,0,0,0-52.44,30.42,349.64,349.64,0,0,0-47.66,37.52A228.38,228.38,0,0,0,762.5,1612a168.63,168.63,0,0,0-17,25.28,132,132,0,0,0-6.5,13.83c-1,2.35-1.79,4.78-2.65,7.18-.42,1.21-.74,2.45-1.12,3.67s-.75,2.44-1,3.69l-.91,3.73c-.28,1.24-.49,2.51-.74,3.76-.54,2.51-.77,5.06-1.13,7.59a104.94,104.94,0,0,0-.5,15.35c0,2.56.36,5.1.57,7.66.11,1.27.38,2.54.56,3.81s.34,2.56.68,3.8a70.91,70.91,0,0,0,2,7.47c.41,1.22.76,2.46,1.23,3.66l1.48,3.57a85.65,85.65,0,0,0,17.22,25.44,132.72,132.72,0,0,0,23.76,19.33l3.24,2,1.61,1,1.66.94c2.22,1.26,4.43,2.54,6.66,3.77l6.81,3.47c2.26,1.17,4.61,2.16,6.91,3.24l3.47,1.6,3.52,1.46c2.35,1,4.68,2,7.05,2.89,4.77,1.76,9.5,3.63,14.33,5.18,2.41.8,4.81,1.65,7.23,2.41l7.28,2.22,3.64,1.11,3.67,1,7.34,2c19.6,5.21,39.5,9.15,59.47,12.51s40.07,5.91,60.2,8.06,40.29,3.85,60.48,5.11c10.09.73,20.19,1.17,30.29,1.74l15.15.65,7.58.32,7.58.25c80.86,2.72,161.76,1.26,242.54-1.93s161.46-8.53,242-14.93q60.42-4.89,120.78-10.53c40.22-3.83,80.44-7.76,120.63-12l30.13-3.21,30.13-3.27c20.07-2.29,40.16-4.49,60.22-6.85s40.14-4.66,60.2-7.09,40.11-4.85,60.16-7.33q60.15-7.43,120.25-15.31l60.07-8c20-2.76,40.05-5.43,60.06-8.26,160-22.67,319.62-49,478.08-81.19,79.19-16.22,158.12-33.82,236.56-53.45q58.82-14.76,117.25-31,58.4-16.41,116.22-34.76t114.83-39.15c38-13.91,75.64-28.7,112.78-44.76,18.52-8.13,37-16.36,55.24-25.14s36.34-17.82,54.22-27.3c35.68-19.09,70.59-39.79,103.54-63.4a588.36,588.36,0,0,0,47.62-37.77,393.29,393.29,0,0,0,42.44-43.56c1.64-1.94,3.15-4,4.73-6s3.18-4,4.61-6.06l4.42-6.21,1.11-1.55,1-1.6,2.07-3.21c2.85-4.21,5.3-8.68,7.86-13.07,1.22-2.23,2.34-4.52,3.51-6.78.57-1.14,1.19-2.25,1.71-3.41l1.56-3.49c2.18-4.61,3.89-9.41,5.67-14.18l2.27-7.31c.41-1.21.67-2.46,1-3.7l.89-3.72a128.66,128.66,0,0,0,3.19-30.36,154.48,154.48,0,0,0-12.34-59.36C3820.8,1079,3818.53,1074.39,3816,1070Z"/><path class="cls-80" d="M2399,583.53a18,18,0,1,0,21.26,14A18,18,0,0,0,2399,583.53Z"/><path d="M2413.39,584.87a19.5,19.5,0,1,0-10.77,35.79,19.12,19.12,0,0,0,4-.41,19.5,19.5,0,0,0,6.8-35.38Zm3.05,25.36a16.5,16.5,0,1,1-17.1-25.24,16.58,16.58,0,0,1,3.36-.34,16.52,16.52,0,0,1,16.12,13.18h0A16.4,16.4,0,0,1,2416.44,610.23Z"/><rect class="cls-74" x="2218.13" y="598.5" width="41.31" height="41.31" transform="translate(-78.86 464.07) rotate(-11.63)"/><path class="cls-81" d="M2366.24,722.78l27.45,18.08,18.08-27.46-27.45-18.08Zm37.22-7.66L2392,732.55l-17.43-11.48L2386,703.64Z"/><polygon class="cls-82" points="2276.32 684.92 2327.16 698.21 2315.2 658.45 2276.32 684.92"/><path d="M2272.88,685.51l56.41,14.75L2316,656.15Zm6.87-1.18,34.64-23.58L2325,696.17Z"/><polygon class="cls-80" points="2471.29 645.89 2500.69 654.51 2500 619.81 2471.29 645.89"/><path d="M2468.31,646.58l33.92,9.95-.8-40Zm6-1.38,24.28-22.06.59,29.36Z"/><path class="cls-83" d="M3093,2057.33a8.47,8.47,0,1,0,8.47,8.46A8.46,8.46,0,0,0,3093,2057.33Z"/><path class="cls-83" d="M3162.69,2057.33a8.47,8.47,0,1,0,8.47,8.46A8.46,8.46,0,0,0,3162.69,2057.33Z"/><path class="cls-83" d="M3232.38,2057.33a8.47,8.47,0,1,0,8.47,8.46A8.46,8.46,0,0,0,3232.38,2057.33Z"/><circle class="cls-83" cx="3302.07" cy="2065.79" r="8.46"/><path class="cls-83" d="M3093,2126.55a8.47,8.47,0,1,0,8.47,8.47A8.47,8.47,0,0,0,3093,2126.55Z"/><path class="cls-83" d="M3162.69,2126.55a8.47,8.47,0,1,0,8.47,8.47A8.47,8.47,0,0,0,3162.69,2126.55Z"/><path class="cls-83" d="M3232.38,2126.55a8.47,8.47,0,1,0,8.47,8.47A8.47,8.47,0,0,0,3232.38,2126.55Z"/><path class="cls-83" d="M3302.07,2126.55a8.47,8.47,0,1,0,8.47,8.47A8.47,8.47,0,0,0,3302.07,2126.55Z"/><path class="cls-83" d="M3093,2195.77a8.47,8.47,0,1,0,8.47,8.47A8.47,8.47,0,0,0,3093,2195.77Z"/><path class="cls-83" d="M3162.69,2195.77a8.47,8.47,0,1,0,8.47,8.47A8.47,8.47,0,0,0,3162.69,2195.77Z"/><path class="cls-83" d="M3232.38,2195.77a8.47,8.47,0,1,0,8.47,8.47A8.47,8.47,0,0,0,3232.38,2195.77Z"/><path class="cls-83" d="M3302.07,2195.77a8.47,8.47,0,1,0,8.47,8.47A8.47,8.47,0,0,0,3302.07,2195.77Z"/></g></svg>