<?xml version="1.0" encoding="utf-8"?>
<!-- Generator: Adobe Illustrator 21.1.0, SVG Export Plug-In . SVG Version: 6.00 Build 0)  -->
<svg version="1.1" id="Layer_1" xmlns="http://www.w3.org/2000/svg" xmlns:xlink="http://www.w3.org/1999/xlink" x="0px" y="0px"
	 viewBox="0 0 64 64" style="enable-background:new 0 0 64 64;" xml:space="preserve">
<style type="text/css">
	.st0{fill:#E4CE8E;}
	.st1{fill:#A79E8B;}
	.st2{fill:#D7385E;}
	.st3{fill:#FF6C58;}
	.st4{fill:#314A52;}
</style>
<g id="Box">
	<path class="st0" d="M28.5,3c2.2-1.2,4.8-1.2,7,0l19,11c2.2,1.3,3.5,3.6,3.5,6.1V44c0,2.5-1.3,4.8-3.5,6.1l-19,11
		c-2.2,1.2-4.8,1.2-7,0l-19-11C7.3,48.8,6,46.5,6,44V20c0-2.5,1.3-4.8,3.5-6.1L28.5,3z"/>
	<path class="st1" d="M10.5,15.7l9.5-5.5l-2-3.5l-9.5,5.5C5.7,13.8,4,16.8,4,20v24c0,3.2,1.7,6.2,4.5,7.8l19,11c2.8,1.6,6.2,1.6,9,0
		l19-11l-1-1.7c1.3-1.4,2-3.3,2-5.3V20.9c0-1.5-1.7-2.5-3-1.7L34,30.3c-1.2,0.7-2,2-2,3.5v5c0,9.6-10.1,15.5-18.3,11.4l-3.2-1.8
		C9,47.4,8,45.8,8,44V20C8,18.2,9,16.6,10.5,15.7z"/>
	<polygon class="st2" points="40,26 48,22.4 48,31.5 44,31 40,36 	"/>
	<polygon class="st3" points="23,7.9 48,22.4 40,27 15.4,12.8 	"/>
	<path class="st4" d="M55.5,12.2c2.8,1.6,4.5,4.6,4.5,7.8v24c0,3.2-1.7,6.2-4.5,7.8L50,55l-2-3.5l5.5-3.2C55,47.4,56,45.8,56,44V20
		c0-1.8-1-3.5-2.5-4.3l-19-11c-1.5-0.9-3.4-0.9-5,0l-14.1,8.2l-2-3.5l14.1-8.2c2.8-1.6,6.2-1.6,9,0L55.5,12.2z M14,36l-4,4l2,1v5
		l4,2v-5l2,1L14,36z"/>
</g>
</svg>
