<?xml version="1.0" encoding="utf-8"?>
<!-- Generator: Adobe Illustrator 21.1.0, SVG Export Plug-In . SVG Version: 6.00 Build 0)  -->
<svg version="1.1" id="Layer_1" xmlns="http://www.w3.org/2000/svg" xmlns:xlink="http://www.w3.org/1999/xlink" x="0px" y="0px"
	 viewBox="0 0 64 64" style="enable-background:new 0 0 64 64;" xml:space="preserve">
<style type="text/css">
	.st0{fill:#FF6C58;}
	.st1{fill:#D7385E;}
	.st2{fill:#FFFFFF;}
	.st3{fill:#314A52;}
	.st4{fill-rule:evenodd;clip-rule:evenodd;fill:#ACBDC5;}
</style>
<g id="Click">
	<rect x="3" y="7" class="st0" width="46" height="22"/>
	<path class="st1" d="M8,4c-4.4,0-8,3.6-8,8v16c0,4.4,3.6,8,8,8h36v-2c3.3,0,6-2.7,6-6V12l-2,0c0,8.8-12.5,16-28,16
		c-8.8,0-16-2.7-16-6V12c0-2.2,1.8-4,4-4h4V4H8z"/>
	<path class="st2" d="M19,16h-3v-4h3c2.8,0,5,2.2,5,5v2c0,0.6,0.4,1,1,1h2c0.6,0,1-0.4,1-1v-3h4v3c0,2.8-2.2,5-5,5h-2
		c-2.8,0-5-2.2-5-5v-2C20,16.4,19.6,16,19,16z M45.9,49.1l4.4,8.3l8-4l-4.4-8.3l8.9-3.1L38,22v32.3L45.9,49.1z M22,28
		c1.1,0,2-0.9,2-2s-0.9-2-2-2c-1.1,0-2,0.9-2,2S20.9,28,22,28z M30,28c1.1,0,2-0.9,2-2s-0.9-2-2-2c-1.1,0-2,0.9-2,2S28.9,28,30,28z"
		/>
	<path class="st3" d="M44,8H12V4h32c4.4,0,8,3.6,8,8v16c0,0.9-0.1,1.7-0.4,2.4l12.4,10l-0.6,3.4l-6.7,2.3l4.3,8l-9.8,4.9l-1.8-3.6
		l6.2-3.1L51,43.9l7.7-2.7L40,26.2L36,27v-9.2l12,9.7V12C48,9.8,46.2,8,44,8z"/>
	<polygon class="st4" points="36,54.3 36,23 40,26.2 40,50.6 46.6,46.2 51.2,54.7 55.6,52.5 57.4,56.1 49.5,60 45.2,52 39.1,56 	"/>
</g>
</svg>
