<?xml version="1.0" encoding="utf-8"?>
<!-- Generator: Adobe Illustrator 21.1.0, SVG Export Plug-In . SVG Version: 6.00 Build 0)  -->
<svg version="1.1" id="Layer_1" xmlns="http://www.w3.org/2000/svg" xmlns:xlink="http://www.w3.org/1999/xlink" x="0px" y="0px"
	 viewBox="0 0 64 64" style="enable-background:new 0 0 64 64;" xml:space="preserve">
<style type="text/css">
	.st0{fill:#FFFFFF;}
	.st1{fill:#ACBDC5;}
	.st2{fill:#FFF200;}
	.st3{fill:#597380;}
	.st4{fill-rule:evenodd;clip-rule:evenodd;fill:#314A52;}
</style>
<g id="Credit_Card">
	<rect x="15" y="3" class="st0" width="46" height="21"/>
	<path class="st1" d="M20,4c-2.2,0-4,1.8-4,4v12.1c2.6,1.3,5.2,2.3,7.4,2.9h15.8C51.3,20.7,60,14.9,60,8h1v25h-8v24H3V23h9V8
		c0-4.4,3.6-8,8-8h32v4H20z"/>
	<rect x="8" y="32" class="st2" width="12" height="8"/>
	<path class="st3" d="M0,28c0-4.4,3.6-8,8-8h4v4H8c-2.2,0-4,1.8-4,4v18c0,3.3,7.2,6,16,6c17.7,0,32-7.2,32-16h1v21h-9v3H8
		c-4.4,0-8-3.6-8-8V28z M10,48h4c1.1,0,2-0.9,2-2c0-1.1-0.9-2-2-2h-4c-1.1,0-2,0.9-2,2C8,47.1,8.9,48,10,48z M22,48h4
		c1.1,0,2-0.9,2-2c0-1.1-0.9-2-2-2h-4c-1.1,0-2,0.9-2,2C20,47.1,20.9,48,22,48z M34,44c-1.1,0-2,0.9-2,2c0,1.1,0.9,2,2,2h4
		c1.1,0,2-0.9,2-2c0-1.1-0.9-2-2-2H34z"/>
	<path class="st4" d="M52,0h4c4.4,0,8,3.6,8,8v20c0,4.4-3.6,8-8,8v16c0,4.4-3.6,8-8,8h-4v-4h4c2.2,0,4-1.8,4-4V28c0-2.2-1.8-4-4-4
		H12v-4h36c4.4,0,8,3.6,8,8v4c2.2,0,4-1.8,4-4V16H16V8h44c0-2.2-1.8-4-4-4h-4V0z"/>
</g>
</svg>
