<?xml version="1.0" encoding="utf-8"?>
<!-- Generator: Adobe Illustrator 21.1.0, SVG Export Plug-In . SVG Version: 6.00 Build 0)  -->
<svg version="1.1" id="Layer_1" xmlns="http://www.w3.org/2000/svg" xmlns:xlink="http://www.w3.org/1999/xlink" x="0px" y="0px"
	 viewBox="0 0 64 64" style="enable-background:new 0 0 64 64;" xml:space="preserve">
<style type="text/css">
	.st0{fill:#FFFFFF;}
	.st1{fill:#ACBDC5;}
	.st2{fill-rule:evenodd;clip-rule:evenodd;fill:#314A52;}
	.st3{fill:#FACC2E;}
</style>
<g id="Review">
	<rect x="3" y="11" class="st0" width="58" height="34"/>
	<path class="st1" d="M0,16c0-4.4,3.6-8,8-8h5v4H8c-2.2,0-4,1.8-4,4v20c0,4.4,7.2,8,16,8c9.9,0,19-1.8,26-4.8
		c-0.1-0.2-0.1-0.4,0-0.6l0.7-2.3c0.1-0.4,0-0.9-0.4-1.1l-1.9-1.4C43.6,33.2,44,32,45,32h2.4c0.4,0,0.8-0.3,0.9-0.7l0.7-2.3
		c0.3-0.9,1.6-0.9,1.9,0l0.7,2.3c0.1,0.4,0.5,0.7,0.9,0.7H55c0.5,0,0.9,0.3,1,0.7c2.6-2.6,4-5.6,4-8.7h1v25H43.1L32,60.1L24,52H8
		c-4.4,0-8-3.6-8-8V16z"/>
	<path class="st2" d="M56,12H12V8h44c4.4,0,8,3.6,8,8v28c0,4.4-3.6,8-8,8H40v-4h16c2.2,0,4-1.8,4-4V16C60,13.8,58.2,12,56,12z"/>
	<path class="st3" d="M35.4,22.6c0.3,0.8,1,1.4,1.9,1.4H42c1.9,0,2.7,2.5,1.2,3.6l-3.8,2.8c-0.7,0.5-1,1.4-0.7,2.2l1.5,4.5
		c0.6,1.8-1.5,3.4-3.1,2.2l-3.8-2.8c-0.7-0.5-1.7-0.5-2.4,0L27,39.4c-1.6,1.1-3.7-0.4-3.1-2.2l1.5-4.5c0.3-0.8,0-1.7-0.7-2.2
		l-3.8-2.8C19.2,26.5,20,24,22,24h4.7c0.9,0,1.6-0.6,1.9-1.4l1.5-4.5c0.6-1.8,3.2-1.8,3.8,0L35.4,22.6z M14.9,29.1
		c-0.3-0.9-1.6-0.9-1.9,0l-0.7,2.3c-0.1,0.4-0.5,0.7-0.9,0.7H9c-1,0-1.4,1.2-0.6,1.8l1.9,1.4c0.4,0.3,0.5,0.7,0.4,1.1L10,38.6
		c-0.3,0.9,0.8,1.7,1.5,1.1l1.9-1.4c0.4-0.3,0.8-0.3,1.2,0l1.9,1.4c0.8,0.6,1.8-0.2,1.5-1.1l-0.7-2.3c-0.1-0.4,0-0.9,0.4-1.1
		l1.9-1.4C20.4,33.2,20,32,19,32h-2.4c-0.4,0-0.8-0.3-0.9-0.7L14.9,29.1z"/>
</g>
</svg>
