<?xml version="1.0" encoding="utf-8"?>
<!-- Generator: Adobe Illustrator 21.1.0, SVG Export Plug-In . SVG Version: 6.00 Build 0)  -->
<svg version="1.1" id="Layer_1" xmlns="http://www.w3.org/2000/svg" xmlns:xlink="http://www.w3.org/1999/xlink" x="0px" y="0px"
	 viewBox="0 0 64 64" style="enable-background:new 0 0 64 64;" xml:space="preserve">
<style type="text/css">
	.st0{fill:#FFCDB2;}
	.st1{fill:#FFB4A2;}
	.st2{fill-rule:evenodd;clip-rule:evenodd;fill:#314A52;}
	.st3{fill:#ACBDC5;}
</style>
<g id="Tap">
	<polygon class="st0" points="23,61 45,61 45,31 39,31 38,37 37,27 31,27 30,35 29,11 23,11 23,43 15,35 9.5,37 	"/>
	<path class="st1" d="M18.4,34.2c-2.7-3.4-8.1-2.8-9.9,1.1c-0.8,1.7-0.7,3.8,0.2,5.4L22.4,64H40v-3h5l8-6.5V35h-6l-1,3h-2
		c0,7.7-8.1,14-18,14c-2.7,0-5.2-0.6-7-1.7l-6.8-11.6c-0.3-0.5-0.3-1.2-0.1-1.7c0.6-1.2,2.3-1.4,3.1-0.4l5.1,6.6l3.2-2.5L18.4,34.2z
		"/>
	<path class="st2" d="M20,14c0-3.3,2.7-6,6-6c3.3,0,6,2.7,6,6v10.3c0.6-0.2,1.3-0.3,2-0.3c2.8,0,5.1,1.9,5.8,4.4
		c0.7-0.3,1.4-0.4,2.2-0.4c2.8,0,5.1,1.9,5.8,4.4c0.7-0.3,1.4-0.4,2.2-0.4c3.3,0,6,2.7,6,6v10c0,8.8-7.2,16-16,16v-4
		c6.6,0,12-5.4,12-12V38c0-1.1-0.9-2-2-2c-1.1,0-2,0.9-2,2v0.5c0,1.1-0.9,2-2,2c-1.1,0-2-0.9-2-2V34c0-1.1-0.9-2-2-2
		c-1.1,0-2,0.9-2,2v2c0,1.1-0.9,2-2,2c-1.1,0-2-0.9-2-2v-6c0-1.1-0.9-2-2-2c-1.1,0-2,0.9-2,2v4c0,1.1-0.9,2-2,2c-1.1,0-2-0.9-2-2V14
		c0-1.1-0.9-2-2-2c-1.1,0-2,0.9-2,2v30h-4V14z"/>
	<path class="st3" d="M38,12c1.1,0,2,0.9,2,2c0,1.1-0.9,2-2,2h-2v-4H38z M14,12c-1.1,0-2,0.9-2,2c0,1.1,0.9,2,2,2h2v-4H14z
		 M35.9,6.9c0.8-0.8,0.8-2,0-2.8c-0.8-0.8-2-0.8-2.8,0l-1.4,1.4l2.8,2.8L35.9,6.9z M18.9,4.1c-0.8-0.8-2-0.8-2.8,0
		c-0.8,0.8-0.8,2,0,2.8l1.4,1.4l2.8-2.8L18.9,4.1z M28,2c0-1.1-0.9-2-2-2c-1.1,0-2,0.9-2,2v2h4V2z"/>
</g>
</svg>
